<svg width="24" height="24" viewBox="0 0 24 24" fill="none" xmlns="http://www.w3.org/2000/svg">
<path fill-rule="evenodd" clip-rule="evenodd" d="M11.9747 3C14.9091 3 17.3593 5.23757 17.625 8.15991L18.0318 12.6358C18.0676 13.0287 18.304 13.3751 18.6569 13.5516L18.6601 13.5532C19.4503 13.9482 19.9494 14.7558 19.9494 15.6392V15.9873C19.9494 17.1199 19.0313 18.038 17.8987 18.038H14.481V18.4937C14.481 19.8779 13.3589 21 11.9747 21C10.5905 21 9.46835 19.8779 9.46835 18.4937V18.038H6.05063C4.9181 18.038 4 17.1199 4 15.9873V15.6392C4 14.7558 4.49911 13.9482 5.28925 13.5532L5.29244 13.5516C5.64533 13.3751 5.8818 13.0287 5.91752 12.6358L6.32442 8.15991C6.59008 5.23757 9.0403 3 11.9747 3ZM10.8354 18.038V18.4937C10.8354 19.1229 11.3455 19.6329 11.9747 19.6329C12.6039 19.6329 13.1139 19.1229 13.1139 18.4937V18.038H10.8354ZM11.9747 4.36709C9.74736 4.36709 7.88754 6.0655 7.68589 8.28368L7.279 12.7595C7.20041 13.6239 6.68017 14.3862 5.90382 14.7743C5.57364 14.9394 5.36709 15.2736 5.36709 15.6392V15.9873C5.36709 16.3649 5.67312 16.6709 6.05063 16.6709H17.8987C18.2762 16.6709 18.5823 16.3649 18.5823 15.9873V15.6392C18.5823 15.2736 18.3757 14.9394 18.0487 14.7759C17.2692 14.3862 16.749 13.6239 16.6704 12.7595L16.2635 8.28368C16.0618 6.0655 14.202 4.36709 11.9747 4.36709Z" fill="#131313"/>
</svg>
