<svg width="24" height="24" viewBox="0 0 24 24" fill="none" xmlns="http://www.w3.org/2000/svg">
<path fill-rule="evenodd" clip-rule="evenodd" d="M8.04509 5.45455C7.71127 5.45455 7.42036 5.68218 7.33891 6.00509L5.65891 12.7273H9.09091C9.92873 12.7273 10.4407 13.3993 10.6247 13.9309C10.8225 14.5011 11.3644 14.9091 12 14.9091C12.6356 14.9091 13.1775 14.5011 13.3753 13.9309C13.5593 13.3993 14.0713 12.7273 14.9091 12.7273H18.3411L16.6611 6.00509C16.5796 5.68218 16.2887 5.45455 15.9549 5.45455H8.04509ZM18.5455 14.1818H14.9105L14.872 14.2087C14.8291 14.2473 14.7804 14.3171 14.7498 14.4065C14.3556 15.5447 13.2742 16.3636 12 16.3636C10.7258 16.3636 9.64436 15.5447 9.25018 14.4065C9.21964 14.3171 9.17091 14.2473 9.128 14.2087L9.08873 14.1818H5.45455V17.8182C5.45455 18.2196 5.78036 18.5455 6.18182 18.5455H17.8182C18.2196 18.5455 18.5455 18.2196 18.5455 17.8182V14.1818ZM5.928 5.65236C6.17091 4.68145 7.04364 4 8.04509 4H15.9549C16.9564 4 17.8291 4.68145 18.072 5.65236L20 13.3651V17.8182C20 19.0233 19.0233 20 17.8182 20H6.18182C4.97673 20 4 19.0233 4 17.8182V13.3651L5.928 5.65236ZM8.36364 7.63636C8.36364 7.23491 8.68945 6.90909 9.09091 6.90909H14.9091C15.3105 6.90909 15.6364 7.23491 15.6364 7.63636C15.6364 8.03782 15.3105 8.36364 14.9091 8.36364H9.09091C8.68945 8.36364 8.36364 8.03782 8.36364 7.63636ZM7.63636 10.5455C7.63636 10.144 7.96218 9.81818 8.36364 9.81818H15.6364C16.0378 9.81818 16.3636 10.144 16.3636 10.5455C16.3636 10.9469 16.0378 11.2727 15.6364 11.2727H8.36364C7.96218 11.2727 7.63636 10.9469 7.63636 10.5455Z" fill="#131313"/>
</svg>
