<svg width="26" height="26" viewBox="0 0 26 26" fill="none" xmlns="http://www.w3.org/2000/svg">
<path d="M0.00346399 14.1924C0.00346399 12.1362 0.00964728 10.0803 2.85047e-05 8.02408C-0.00306324 7.28907 0.245308 6.68309 0.767469 6.17008C2.67725 4.2926 4.58269 2.41039 6.48377 0.523436C6.84756 0.163735 7.28625 -0.00172084 7.79226 1.34895e-05C8.39412 1.34895e-05 8.99461 1.34895e-05 9.5975 1.34895e-05C11.5499 1.34895e-05 13.5021 1.34895e-05 15.4543 1.34895e-05C17.8745 0.00244156 19.8226 1.63931 20.2637 4.04101C20.3606 4.56617 20.3207 5.09757 20.3276 5.62654C20.3296 5.78922 20.3276 5.95155 20.3276 6.11423C20.3276 6.48365 20.3276 6.48885 19.97 6.53047C19.5835 6.57695 19.2029 6.55787 18.8343 6.4115C18.7274 6.36883 18.6883 6.31091 18.6903 6.19228C18.6979 5.76147 18.6958 5.33031 18.6927 4.89951C18.6797 3.04273 17.2911 1.6511 15.4553 1.65179C12.9435 1.65179 10.4315 1.65179 7.91937 1.65179C7.57378 1.65179 7.56038 1.66601 7.56038 2.00733C7.56038 2.64314 7.55592 3.27894 7.56038 3.9151C7.57275 5.33725 6.89944 6.35912 5.73385 7.08268C5.18626 7.42261 4.57616 7.56552 3.93514 7.58217C3.24293 7.60021 2.55072 7.63073 1.85817 7.63906C1.68366 7.64149 1.639 7.71433 1.639 7.86209C1.639 7.96824 1.639 8.07438 1.639 8.18017V20.264C1.639 22.1391 3.0004 23.5478 4.85648 23.5536C8.4042 23.5648 11.9518 23.5648 15.4993 23.5536C17.32 23.5474 18.68 22.1468 18.6924 20.3056C18.6955 19.8463 18.7003 19.3867 18.6886 18.9278C18.6848 18.7724 18.7346 18.7218 18.8813 18.6999C19.3039 18.6306 19.7358 18.6461 20.1524 18.7457C20.2798 18.7773 20.3369 18.8234 20.3314 18.9684C20.3063 19.6528 20.3657 20.3382 20.285 21.0222C20.0455 23.0788 18.3011 24.8756 16.2709 25.1555C16.0077 25.192 15.7423 25.2104 15.4766 25.2106C11.9358 25.2106 8.39515 25.2106 4.85476 25.2106C2.53595 25.2079 0.612195 23.6463 0.110644 21.3701C0.0326535 20.9896 -0.00352118 20.6015 0.00277679 20.213C0.00460893 18.2058 0.0048381 16.1989 0.00346399 14.1924Z" fill="black"/>
<path d="M19.4328 17.7419C18.631 17.771 17.8993 17.9306 17.3146 18.5071C17.1933 18.6264 17.0442 18.624 16.9068 18.5418C16.4798 18.2868 16.0562 18.026 15.6334 17.7641C15.486 17.6725 15.4317 17.5369 15.474 17.3638C15.8714 15.7314 14.645 13.9603 13.4396 13.5975C13.2304 13.5344 13.139 13.3894 13.1459 13.1671C13.1593 12.7293 13.161 12.2916 13.1737 11.8538C13.1826 11.5358 13.2403 11.4664 13.5268 11.3557C14.6766 10.9121 15.3513 10.0501 15.6454 8.86626C15.7402 8.48471 15.7179 8.09414 15.6512 7.70912C15.6141 7.49545 15.6928 7.35774 15.8748 7.25819C16.2617 7.04625 16.6485 6.83328 17.0301 6.61198C17.2342 6.4937 17.408 6.51139 17.5842 6.66782C18.116 7.13783 18.7285 7.43683 19.442 7.45209C20.2514 7.46908 21.0305 7.34421 21.6891 6.80414C21.99 6.55752 22.0882 6.55925 22.4208 6.76356C22.767 6.97619 23.113 7.18951 23.463 7.3959C23.654 7.50828 23.7258 7.66784 23.6671 7.877C23.328 9.07959 24.1618 11.0637 25.6884 11.5923C25.9162 11.6714 26.0072 11.8105 25.9993 12.0508C25.9852 12.4744 25.9904 12.8982 25.9842 13.3218C25.9787 13.6749 25.9186 13.7456 25.5877 13.8393C25.1659 13.959 24.8155 14.2 24.5132 14.5129C23.9247 15.1217 23.5513 15.8421 23.4431 16.6923C23.4137 16.9382 23.429 17.1875 23.4881 17.428C23.5517 17.6978 23.4998 17.8258 23.2682 17.9583C22.8856 18.1779 22.4994 18.3919 22.1137 18.6059C21.9319 18.7069 21.7478 18.7221 21.5932 18.5615C20.9931 17.9389 20.2256 17.78 19.4328 17.7419ZM19.5702 9.2943C17.7728 9.29673 16.2981 10.7886 16.3005 12.602C16.3029 14.4154 17.7725 15.9035 19.5557 15.9031C21.3706 15.9031 22.8454 14.4196 22.8464 12.594C22.8474 10.7827 21.3672 9.29152 19.5705 9.2943H19.5702Z" fill="black"/>
</svg>
