<svg width="29" height="31" viewBox="0 0 29 31" fill="none" xmlns="http://www.w3.org/2000/svg">
<g clip-path="url(#clip0_60_944)">
<path d="M18.2202 3.70557e-05C19.4161 1.23417 20.6123 2.46804 21.809 3.70164C22.2043 4.10835 22.5546 4.58931 23.0186 4.89233C24.3584 5.76831 24.3162 7.08892 24.1656 8.40066C24.1194 8.80415 23.6618 9.1568 23.3926 9.53285L23.1918 9.45538V6.8093C21.7957 6.8093 20.4925 6.81253 19.1888 6.8093C17.9157 6.80527 17.4152 6.311 17.4043 5.03396C17.3943 3.89773 17.3886 2.76111 17.4079 1.62488C17.4152 1.18871 17.324 0.968409 16.8186 0.970426C12.7811 0.986835 8.7436 0.986835 4.70611 0.970426C3.94481 0.967198 3.91066 1.41426 3.91187 1.98318C3.9199 6.21981 3.89339 10.4564 3.93477 14.6906C3.94361 15.5541 3.81425 16.2586 2.94327 16.8025V15.9753C2.94327 11.3005 2.96175 6.62531 2.9264 1.9505C2.91997 1.09268 3.14977 0.453558 3.86848 -0.000366211L18.2202 3.70557e-05ZM22.1902 5.76669L18.3769 1.92871C18.3769 3.0036 18.3532 4.12974 18.401 5.25265C18.4087 5.43099 18.7317 5.73683 18.9193 5.74369C20.0172 5.7905 21.1188 5.76669 22.1902 5.76669Z" fill="bcurrentColor"/>
<path d="M0.935139 31C0.220443 30.5033 -0.0555523 29.8298 0.00912787 28.9543C0.0975107 27.7487 0.0372496 26.5285 0.181073 25.3314C0.301595 24.3226 0.90782 23.5282 1.74304 22.9391C2.87916 22.1386 3.15315 22.1616 4.39814 23.1981C4.22459 23.2207 4.11692 23.2433 4.01126 23.2477C2.25204 23.3204 1.10146 24.4788 1.06008 26.2537C1.03678 27.26 1.07173 28.2683 1.04602 29.2746C1.03276 29.8068 1.24689 30.0247 1.76915 30.0239C4.95763 30.0175 8.1461 30.0175 11.3346 30.0239C11.9067 30.0239 12.0979 29.7633 12.0762 29.2113C12.0457 28.3858 12.0694 27.557 12.0682 26.7323C12.0649 24.4352 11.0763 23.3672 8.81406 23.2159C9.70793 22.1668 10.1057 22.097 11.2362 22.8426C12.4454 23.6399 13.0251 24.8137 13.0942 26.2319C13.1456 27.2879 13.0942 28.349 13.1099 29.4074C13.1219 30.1309 12.6828 30.5723 12.2023 31.0004L0.935139 31Z" fill="currentColor"/>
<path d="M13.5898 31C13.7353 30.1463 14.268 29.9857 15.0662 30.0034C17.4273 30.0559 19.7903 30.0244 22.1521 30.0212C23.1111 30.0212 23.1673 29.9619 23.1677 29.029C23.1677 26.9918 23.1396 24.9538 23.1822 22.9178C23.1987 22.1108 23.3485 21.3038 23.4984 20.5069C23.5301 20.3391 23.8278 20.2221 24.1492 19.9642C24.1737 20.4307 24.1998 20.6982 24.2002 20.9661C24.203 23.5706 24.1749 26.1755 24.2167 28.7792C24.2315 29.6843 24.0483 30.4376 23.3128 30.9984L13.5898 31Z" fill="currentColor"/>
<path d="M24.5601 16.8457C24.9924 16.9429 25.3029 16.9667 25.5693 17.0878C25.8015 17.1935 26.0791 17.3767 26.153 17.5901C26.1996 17.7233 25.9493 18.0678 25.7573 18.1594C24.5802 18.7215 23.3822 19.2392 22.1895 19.7681C22.0561 19.8275 21.9131 19.8654 21.6696 19.9489C21.8685 20.074 22.0071 20.1272 22.0979 20.2253C22.2586 20.3988 22.5398 20.6465 22.4996 20.7781C22.4317 20.9964 22.1782 21.2344 21.9512 21.3127C20.3531 21.8639 18.7417 22.3759 17.1352 22.9024C16.4317 23.1328 16.1413 23.6206 16.5326 24.2396C17.4144 25.6361 17.336 26.7929 15.9488 27.7758C15.8962 27.8129 15.8753 27.8968 15.7761 28.0663C16.8146 28.0663 17.7767 28.0695 18.7385 28.0663C19.1435 28.0663 19.6107 28.0832 19.5472 28.6057C19.5231 28.8018 19.0378 29.0702 18.7534 29.0823C17.522 29.1351 16.2867 29.1085 15.0529 29.104C14.0807 29.1008 13.916 28.8946 14.1157 27.9456C14.8898 24.2594 16.2762 20.8095 18.1568 17.5611C20.5708 13.3934 23.7173 9.89761 27.6941 7.18213C27.9649 6.99693 28.4233 6.77864 28.6277 6.89001C28.8507 7.01105 28.9624 7.48959 28.9793 7.82005C29.1066 10.308 28.6522 12.695 27.6057 14.9537C27.4683 15.2499 27.1726 15.5226 26.8826 15.6869C26.1735 16.0887 25.4247 16.4208 24.5601 16.8457ZM20.6327 20.7135C20.2406 20.5295 19.9739 20.4625 19.7891 20.3007C19.6243 20.1559 19.411 19.7859 19.4632 19.7246C19.6549 19.5062 19.901 19.3433 20.1763 19.2525C21.4812 18.8337 22.7969 18.4479 24.1086 18.0509C24.0893 17.9702 24.0684 17.8895 24.0503 17.8068C23.7289 17.7305 23.3882 17.6974 23.0926 17.5647C22.8692 17.4638 22.6032 17.2621 22.5474 17.0539C22.5096 16.9139 22.7684 16.6177 22.9604 16.5063C23.4702 16.2114 23.9917 15.8902 24.5509 15.7373C26.5001 15.2047 27.2968 13.7848 27.6041 11.9445C27.6443 11.6907 27.7347 11.4434 27.7596 11.1888C27.8516 10.2454 27.9263 9.30004 28.0247 8.14929C23.0299 11.7662 19.5781 16.2433 17.1673 21.7501C17.4795 21.7037 17.6092 21.7021 17.7241 21.6645C18.6505 21.3651 19.5733 21.0605 20.6327 20.7135Z" fill="currentColor"/>
<path d="M6.58477 15.9712C8.44763 15.9809 9.9413 17.5005 9.9409 19.3848C9.9409 21.288 8.39822 22.8039 6.48594 22.7789C4.67811 22.7555 3.16837 21.2283 3.1515 19.4037C3.13502 17.5235 4.69699 15.9608 6.58477 15.9712ZM6.54981 16.9941C5.19796 16.9941 4.15826 18.0468 4.1691 19.4001C4.17915 20.7122 5.20921 21.7431 6.5229 21.7557C7.87154 21.7686 8.95222 20.7183 8.95865 19.388C8.96507 18.0577 7.89564 16.9921 6.54981 16.9941Z" fill="currentColor"/>
<path d="M13.593 11.9073H7.7392C7.55962 11.9073 7.35032 11.9646 7.20649 11.892C6.96183 11.7689 6.75815 11.5636 6.5376 11.3929C6.75132 11.2174 6.953 11.0229 7.1848 10.876C7.2768 10.8179 7.43549 10.8651 7.56404 10.8651H19.5025C19.6564 10.8651 19.8428 10.8123 19.9577 10.8804C20.171 11.0063 20.3434 11.2032 20.5326 11.3707C20.3502 11.5474 20.1907 11.7633 19.9774 11.8863C19.8412 11.9646 19.6263 11.9073 19.4467 11.9073H13.593Z" fill="currentColor"/>
<path d="M13.5894 8.95749H19.2182C19.3468 8.95749 19.4761 8.947 19.6035 8.9595C19.9823 8.99703 20.5299 8.81546 20.5174 9.4675C20.5058 10.0606 19.9952 9.92223 19.6372 9.92384C17.3244 9.93272 15.0112 9.92868 12.698 9.92868C10.9757 9.92868 9.25387 9.93231 7.53201 9.92546C7.13991 9.92546 6.58591 10.0546 6.56783 9.46023C6.54935 8.855 7.10416 8.96193 7.49826 8.96071C9.52866 8.95426 11.559 8.95789 13.5894 8.95749Z" fill="currentColor"/>
<path d="M20.1136 12.8753C19.8324 13.6222 19.384 13.8287 18.6673 13.8211C14.9713 13.7831 11.2753 13.8037 7.58133 13.8021C7.35113 13.8021 7.09924 13.8425 6.89837 13.7585C6.7449 13.6948 6.56814 13.4664 6.56934 13.3123C6.57055 13.1581 6.76097 12.977 6.91363 12.8777C7.02652 12.8043 7.21213 12.8345 7.36519 12.8345C11.4972 12.8329 15.6288 12.8329 19.7601 12.8345C19.8785 12.8421 19.9965 12.8557 20.1136 12.8753Z" fill="currentColor"/>
<path d="M18.6727 14.8435C18.4654 15.4915 18.1275 15.8216 17.3582 15.8022C15.1225 15.7465 12.8848 15.7735 10.6492 15.7869C9.74966 15.7921 8.87346 15.8006 8.04347 15.3301C7.65699 15.111 7.16888 15.0731 6.72656 14.8435H18.6727Z" fill="currentColor"/>
<path d="M10.1089 16.7568H17.437C17.2948 17.4524 16.9618 17.72 16.2607 17.6962C14.6453 17.6417 13.0255 17.6385 11.4101 17.6962C10.7047 17.7228 10.2861 17.5235 10.1089 16.7568Z" fill="currentColor"/>
<path d="M16.3964 18.6617C16.259 19.3759 15.9653 19.7108 15.2016 19.6765C13.7955 19.6099 12.3874 19.6576 10.9106 19.6576C10.8785 19.3041 10.8516 19.0091 10.8198 18.6617H16.3964Z" fill="currentColor"/>
<path d="M6.58273 24.0366C6.79324 24.3296 7.04674 24.5281 7.03027 24.7008C7.013 24.8815 6.7362 25.0373 6.57309 25.2043C6.40155 25.0236 6.13118 24.8618 6.091 24.6552C6.06489 24.5135 6.35454 24.3094 6.58273 24.0366Z" fill="currentColor"/>
<path d="M6.57703 25.9802C6.79357 26.2861 7.04747 26.4898 7.02336 26.6512C6.99645 26.8275 6.7092 27.0878 6.54128 27.0834C6.37335 27.0789 6.10579 26.7981 6.09133 26.6206C6.07767 26.4576 6.34242 26.2711 6.57703 25.9802Z" fill="currentColor"/>
</g>
<defs>
<clipPath id="clip0_60_944">
<rect width="29" height="31" fill="white"/>
</clipPath>
</defs>
</svg>
