<svg width="30" height="21" viewBox="0 0 30 21" fill="none" xmlns="http://www.w3.org/2000/svg">
<g clip-path="url(#clip0_60_958)">
<path d="M2.64168 5.28838C2.64168 4.8571 2.66467 4.47098 2.63561 4.08921C2.60481 3.67965 2.80651 3.47899 3.14875 3.31525C5.07278 2.38575 7.18693 1.91877 9.32295 1.95147C11.1507 1.97178 12.952 2.39078 14.6014 3.1793C14.8717 3.3096 15.0352 3.31308 15.2686 3.09982C17.0839 1.45243 19.1985 0.407014 21.6314 0.0647671C22.2977 -0.0281782 22.9831 0.015688 23.6597 0.00048669C23.992 -0.00733114 24.11 0.174216 24.1048 0.490404C24.0939 1.11974 24.1013 1.74994 24.1013 2.26853C25.0269 2.66897 25.8797 3.03207 26.7256 3.40559C27.2027 3.61667 27.4469 3.9663 27.3649 4.51746C27.3302 4.75112 27.3593 4.99521 27.3593 5.29099C27.8495 5.29099 28.2971 5.28534 28.7443 5.29099C29.5732 5.30358 29.9983 5.72531 29.9983 6.55053C30.0006 10.5819 30.0006 14.6135 29.9983 18.6451C29.9983 19.4665 29.6027 19.8534 28.7716 19.8539C24.8743 19.8539 20.9773 19.8595 17.0808 19.8469C16.6766 19.8469 16.3582 19.9338 16.1014 20.2526C15.9653 20.4134 15.8166 20.5632 15.6568 20.7004C15.2408 21.073 14.6956 21.1321 14.3689 20.6943C13.7591 19.8752 12.964 19.8317 12.0583 19.84C8.46887 19.8712 4.87903 19.8534 1.28964 19.8526C0.370055 19.8526 0.000922045 19.4812 0.000488281 18.5565C0.000488281 14.5897 0.000488281 10.6229 0.000488281 6.65607C0.000488281 5.68145 0.399551 5.29142 1.38853 5.28838C1.79063 5.28751 2.19056 5.28838 2.64168 5.28838ZM14.673 17.4712C14.6895 17.2944 14.7034 17.2154 14.7034 17.1359C14.7034 12.8795 14.7065 8.62196 14.7129 4.36327C14.7129 4.03927 14.5628 3.91809 14.3047 3.79865C10.8251 2.20859 7.34325 2.28937 3.84668 3.74783C3.45629 3.91114 3.34481 4.13438 3.34611 4.54873C3.36216 8.67481 3.35565 12.8048 3.35565 16.9326V17.4864C5.20653 16.6794 7.05436 16.2446 8.99806 16.2238C10.966 16.2034 12.8312 16.6299 14.673 17.4712ZM15.4143 17.2258C17.7818 15.2461 20.38 14.2133 23.3778 14.2355V0.705395C23.2588 0.687858 23.1389 0.677416 23.0186 0.674124C22.6148 0.688022 22.2066 0.678901 21.8084 0.735363C19.5238 1.06024 17.5402 2.03443 15.8025 3.5437C15.5223 3.78692 15.4048 4.03709 15.4061 4.41235C15.4191 8.47589 15.4143 12.5394 15.4143 16.6034V17.2258ZM27.3593 5.99199V6.64087C27.3593 10.3471 27.3593 14.0533 27.3593 17.7596C27.3593 18.418 27.1294 18.5522 26.5733 18.216C25.0296 17.2827 23.3465 16.8527 21.5547 16.8405C19.4379 16.8262 17.4339 17.3365 15.5253 18.2304C15.1809 18.3919 14.9181 18.3945 14.5784 18.2269C10.9014 16.4153 7.21095 16.5144 3.52309 18.1974C2.79089 18.5314 2.64125 18.4532 2.64125 17.6601C2.64125 13.9695 2.64125 10.2793 2.64125 6.58962V5.98851C2.18623 5.98851 1.80104 5.98851 1.41586 5.98851C0.785602 5.99285 0.685836 6.09145 0.685836 6.71514C0.685836 10.6157 0.685836 14.5162 0.685836 18.4167C0.685836 19.1268 0.724007 19.1663 1.42324 19.1663C5.18918 19.1663 8.95555 19.1841 12.7215 19.1524C13.4767 19.1459 14.0588 19.3318 14.5546 19.9095C14.9723 20.3963 15.0317 20.395 15.4473 19.9095C15.9418 19.3314 16.5226 19.1325 17.2799 19.1511C19.1056 19.1967 20.9326 19.1659 22.7592 19.1659C24.7476 19.1659 26.7355 19.1629 28.7235 19.1685C29.0839 19.1685 29.3156 19.0769 29.3151 18.6577C29.3108 14.6116 29.3108 10.5654 29.3151 6.51926C29.3151 6.16876 29.1464 6.00371 28.825 5.99329C28.36 5.98069 27.8941 5.99199 27.3593 5.99199ZM24.1061 2.99515V3.77346C24.1061 7.28656 24.1061 10.7997 24.1061 14.3128C24.1061 14.9391 24.0445 14.9929 23.445 14.9643C21.3491 14.8687 19.4244 15.4312 17.63 16.4879C17.537 16.5502 17.4479 16.6182 17.3632 16.6916C20.5384 15.8616 23.6268 15.8355 26.605 17.4121C26.6319 17.3179 26.6557 17.274 26.6557 17.2301C26.6589 12.9737 26.6575 8.71592 26.6514 4.45665C26.6514 4.31419 26.5334 4.10137 26.412 4.04187C25.6941 3.69224 24.9614 3.37866 24.1052 2.99428L24.1061 2.99515Z" fill="currentColor"/>
</g>
<defs>
<clipPath id="clip0_60_958">
<rect width="30" height="21" fill="white"/>
</clipPath>
</defs>
</svg>
