<svg width="24" height="24" viewBox="0 0 24 24" fill="none" xmlns="http://www.w3.org/2000/svg">
<path fill-rule="evenodd" clip-rule="evenodd" d="M11.3384 3.28516C12.0305 2.90495 12.8677 2.90495 13.5598 3.28516L19.7045 6.66479C19.9227 6.78461 20.117 6.93746 20.2821 7.11489C20.6723 7.53504 20.8982 8.09268 20.8982 8.68412V15.3159C20.8982 16.1569 20.4404 16.9304 19.7045 17.3352L13.5598 20.7148C12.8677 21.0951 12.0305 21.0951 11.3384 20.7148L5.19362 17.3352C4.45779 16.9304 4 16.1569 4 15.3159V8.68412C4 8.09268 4.22582 7.53504 4.61601 7.11489C4.78116 6.93746 4.97548 6.78461 5.19362 6.66479L11.3384 3.28516ZM12.8193 4.63086C12.5889 4.50413 12.3093 4.50413 12.0789 4.63086L6.64303 7.6203L12.4491 11.1044L18.2551 7.62107L12.8193 4.63086ZM19.362 8.74787L13.2172 12.4347V19.1502L18.9641 15.9895C19.2099 15.8543 19.362 15.5962 19.362 15.3159V8.74787ZM11.681 19.1502V12.4347L5.5362 8.74787V15.3159C5.5362 15.5962 5.68828 15.8543 5.93407 15.9895L11.681 19.1502Z" fill="#131313"/>
</svg>
