<svg width="24" height="24" viewBox="0 0 24 24" fill="none" xmlns="http://www.w3.org/2000/svg">
<path fill-rule="evenodd" clip-rule="evenodd" d="M11.25 4.53675C7.46025 4.91325 4.5 8.1105 4.5 12C4.5 13.8015 5.1345 15.453 6.19275 16.7467L11.25 11.6895V4.53675ZM12.75 4.53675V11.25H19.4632C19.1108 7.70625 16.2937 4.88925 12.75 4.53675ZM19.4632 12.75H12.3105L7.25325 17.8073C8.547 18.8655 10.1985 19.5 12 19.5C15.8895 19.5 19.0868 16.5398 19.4632 12.75ZM3 12C3 7.02975 7.02975 3 12 3C16.9703 3 21 7.02975 21 12C21 16.9703 16.9703 21 12 21C9.51525 21 7.26375 19.992 5.63625 18.3638C4.008 16.7362 3 14.4847 3 12Z" fill="#131313"/>
</svg>
