<svg width="24" height="24" viewBox="0 0 24 24" fill="none" xmlns="http://www.w3.org/2000/svg">
<path fill-rule="evenodd" clip-rule="evenodd" d="M5.25 6.5C4.836 6.5 4.5 6.836 4.5 7.25V17.4395L6.21975 15.7198C6.36 15.5788 6.55125 15.5 6.75 15.5H18.75C19.164 15.5 19.5 15.164 19.5 14.75V7.25C19.5 6.836 19.164 6.5 18.75 6.5H5.25ZM3 7.25C3 6.00725 4.00725 5 5.25 5H18.75C19.9928 5 21 6.00725 21 7.25V14.75C21 15.9928 19.9928 17 18.75 17H7.0605L5.5605 18.5C4.6155 19.445 3 18.776 3 17.4395V7.25ZM8.25 9.5C8.25 9.086 8.586 8.75 9 8.75H11.25C11.664 8.75 12 9.086 12 9.5C12 9.914 11.664 10.25 11.25 10.25H9C8.586 10.25 8.25 9.914 8.25 9.5ZM8.25 12.5C8.25 12.086 8.586 11.75 9 11.75H15C15.414 11.75 15.75 12.086 15.75 12.5C15.75 12.914 15.414 13.25 15 13.25H9C8.586 13.25 8.25 12.914 8.25 12.5Z" fill="currentColor"/>
</svg>
