<svg width="24" height="24" viewBox="0 0 24 24" fill="none" xmlns="http://www.w3.org/2000/svg">
<path fill-rule="evenodd" clip-rule="evenodd" d="M11.75 21.5C17.1348 21.5 21.5 17.1348 21.5 11.75C21.5 6.36522 17.1348 2 11.75 2C6.36522 2 2 6.36522 2 11.75C2 17.1348 6.36522 21.5 11.75 21.5ZM11.75 20C7.19365 20 3.5 16.3063 3.5 11.75C3.5 7.19365 7.19365 3.5 11.75 3.5C16.3063 3.5 20 7.19365 20 11.75C20 16.3063 16.3063 20 11.75 20ZM10.3381 7.78277C10.0435 7.49156 9.56869 7.49425 9.27748 7.78879C8.98625 8.08334 8.98896 8.55822 9.28354 8.84943L12.2449 11.7769L9.27239 14.7777C8.98087 15.0719 8.98316 15.5468 9.27751 15.8383C9.57181 16.1297 10.0466 16.1274 10.338 15.8331L13.8731 12.263C14.1452 11.9882 14.1429 11.5447 13.8678 11.2727L10.3381 7.78277Z" fill="currentColor"/>
</svg>
