<svg width="24" height="24" viewBox="0 0 24 24" fill="none" xmlns="http://www.w3.org/2000/svg">
<path fill-rule="evenodd" clip-rule="evenodd" d="M11.75 21.5C17.1348 21.5 21.5 17.1348 21.5 11.75C21.5 6.36522 17.1348 2 11.75 2C6.36522 2 2 6.36522 2 11.75C2 17.1348 6.36522 21.5 11.75 21.5ZM11.75 20C7.19365 20 3.5 16.3063 3.5 11.75C3.5 7.19365 7.19365 3.5 11.75 3.5C16.3063 3.5 20 7.19365 20 11.75C20 16.3063 16.3063 20 11.75 20ZM12.7724 15.8387C13.0669 16.1299 13.5418 16.1272 13.833 15.8327C14.1242 15.5381 14.1215 15.0632 13.8269 14.772L10.8656 11.8446L13.8381 8.84379C14.1296 8.5495 14.1273 8.0746 13.833 7.78314C13.5387 7.49172 13.0638 7.49406 12.7724 7.78837L9.23741 11.3584C8.96525 11.6333 8.9676 12.0768 9.24266 12.3487L12.7724 15.8387Z" fill="#131313"/>
</svg>
