<svg width="24" height="24" viewBox="0 0 24 24" fill="none" xmlns="http://www.w3.org/2000/svg">
<path fill-rule="evenodd" clip-rule="evenodd" d="M11.75 21.5C17.1348 21.5 21.5 17.1348 21.5 11.75C21.5 6.36522 17.1348 2 11.75 2C6.36522 2 2 6.36522 2 11.75C2 17.1348 6.36522 21.5 11.75 21.5ZM11.75 20C7.19365 20 3.5 16.3063 3.5 11.75C3.5 7.19365 7.19365 3.5 11.75 3.5C16.3063 3.5 20 7.19365 20 11.75C20 16.3063 16.3063 20 11.75 20ZM15.5832 10.5936C15.8744 10.299 15.8717 9.82418 15.5772 9.53296C15.2826 9.24173 14.8077 9.24445 14.5165 9.53903L11.5891 12.5004L8.5883 9.52787C8.29402 9.23635 7.81911 9.23865 7.52766 9.53299C7.23624 9.8273 7.23858 10.3021 7.53289 10.5935L11.1029 14.1286C11.3778 14.4007 11.8213 14.3984 12.0932 14.1233L15.5832 10.5936Z" fill="#131313"/>
</svg>
