<svg width="30" height="33" viewBox="0 0 30 33" fill="none" xmlns="http://www.w3.org/2000/svg">
<path d="M29.3789 17.522C28.8653 17.5397 28.2485 17.6105 28.0179 17.0484C27.7691 16.4429 28.2975 16.0783 28.7101 15.7416C29.0297 15.4797 29.0788 15.183 28.8197 14.8822C28.3769 14.3686 27.9146 13.8688 27.4393 13.3843C27.1386 13.0778 26.8344 13.1206 26.5302 13.4322C26.3188 13.6613 26.0727 13.8558 25.801 14.0086C25.3524 14.2431 25.0021 14.0828 24.8742 13.588C24.802 13.2853 24.7808 12.9727 24.8115 12.663C24.8503 12.231 24.6973 11.9913 24.2665 11.9354C23.8893 11.8863 23.5127 11.8333 23.0995 11.7773V11.1496C23.0995 9.28875 23.1058 7.42845 23.0995 5.56757C23.0938 4.26821 22.2846 3.46531 20.9944 3.45161C20.8135 3.45161 20.6326 3.45161 20.3792 3.45161C20.3792 2.87697 20.4095 2.34513 20.373 1.81785C20.2999 0.758161 19.509 0.00776089 18.4448 0.0054783C13.8396 -0.00365204 9.23452 -0.00136973 4.62941 0.0123258C4.37735 0.0174698 4.13506 0.110752 3.94463 0.275965C2.72078 1.44769 1.51349 2.63635 0.322737 3.84193C0.138149 4.03757 0.0289563 4.29236 0.0145885 4.56095C-0.00138963 11.9109 -0.00424251 19.2608 0.00602912 26.6107C0.00602912 27.752 0.799228 28.5543 1.93538 28.6171C2.16764 28.6302 2.40103 28.6171 2.69206 28.6171C2.69206 29.0668 2.69206 29.4497 2.69206 29.832C2.70233 31.3191 3.45844 32.0758 4.94269 32.0764C10.2482 32.0764 15.5533 32.0764 20.858 32.0764C22.3417 32.0764 23.0972 31.3168 23.0989 29.8275C23.0989 28.5583 23.0989 27.2892 23.0989 25.9653C23.3757 25.9362 23.5749 25.9083 23.7752 25.8957C24.178 25.8689 24.3709 25.6674 24.3606 25.256C24.3475 24.723 24.2808 24.089 24.8919 23.8762C25.466 23.6759 25.8249 24.1752 26.1473 24.5809C26.4036 24.9034 26.7014 24.9616 27.0033 24.6991C27.5287 24.2425 28.0383 23.767 28.5321 23.2724C28.8214 22.9831 28.7506 22.6892 28.4625 22.4096C28.2542 22.2065 28.0447 21.9851 27.9072 21.7328C27.635 21.2341 27.8416 20.8078 28.4042 20.7057C28.7073 20.6515 29.0377 20.7365 29.3361 20.6709C29.549 20.6235 29.8822 20.4426 29.8982 20.2971C29.9767 19.5322 30.0098 18.7633 29.9975 17.9945C29.9964 17.6453 29.7293 17.5106 29.3789 17.522ZM6.57988 5.22004V7.25782H4.62256C5.26225 6.59245 5.8854 5.94419 6.57988 5.22004ZM2.01471 3.84707L3.91724 1.89717C3.91724 2.44899 3.92922 3.02534 3.90469 3.59941C3.90069 3.68615 3.72721 3.83166 3.62735 3.83566C3.06812 3.85905 2.50546 3.84707 2.01642 3.84707H2.01471ZM22.0781 30.0968C22.0666 30.7194 21.674 31.0669 21.0355 31.0669C15.6022 31.0722 10.1691 31.0722 4.73612 31.0669C4.093 31.0669 3.76602 30.7205 3.72607 30.0734C3.71751 29.9268 3.72265 29.779 3.72265 29.6317C3.72265 22.7433 3.71923 15.855 3.71238 8.96691C3.71238 8.47558 3.81338 8.28213 4.34294 8.30895C5.18807 8.35347 6.03662 8.3255 6.88403 8.32094C7.51802 8.31809 7.63329 8.20681 7.63614 7.58423C7.64128 6.57362 7.63614 5.563 7.63614 4.49818C7.85185 4.48505 8.02989 4.46508 8.20679 4.46508C12.4064 4.46508 16.6056 4.46508 20.8044 4.46508C21.7665 4.46508 22.0861 4.7932 22.0872 5.77186C22.0872 7.63217 22.0963 9.49248 22.0763 11.3522C22.0763 11.5742 21.9149 11.7945 21.8281 12.0153C21.7711 12.1631 21.7026 12.3069 21.6569 12.4581C21.6364 12.5243 21.6632 12.6042 21.6609 12.6778C21.6449 13.1589 21.6712 13.7147 21.1342 13.9076C20.628 14.089 20.2817 13.6765 19.9729 13.3312C19.5073 12.8091 19.3624 12.7634 18.8356 13.1943C18.3826 13.5652 17.9694 13.9875 17.5574 14.4063C17.2316 14.7373 17.215 15.0791 17.6013 15.3987C17.7275 15.5031 17.8753 15.6212 17.93 15.7644C18.0442 16.0572 18.2365 16.4344 18.1349 16.6581C18.0333 16.8818 17.6145 16.9742 17.3326 17.1192C17.2969 17.1291 17.2597 17.132 17.223 17.1277C16.0977 17.1717 16.0817 17.1705 15.9773 18.2918C15.9368 18.7278 15.9773 19.1723 15.991 19.6129C16.007 20.1042 16.2723 20.2828 16.7534 20.2469C17.0098 20.2312 17.2669 20.2621 17.5123 20.3382C18.0676 20.5094 18.2205 20.9151 17.9061 21.4013C17.7525 21.6298 17.5622 21.8313 17.3428 21.9976C16.9713 22.2864 16.9331 22.6031 17.2287 22.9403C17.6635 23.4379 18.1092 23.9275 18.58 24.3909C18.8756 24.6819 19.1929 24.6585 19.493 24.3338C19.8406 23.9521 20.2269 23.4904 20.7975 23.7438C21.3482 23.9875 21.2809 24.5798 21.209 25.0654C21.1085 25.7468 21.5656 25.817 22.0889 25.9123C22.0878 27.3349 22.1055 28.7147 22.0798 30.094L22.0781 30.0968ZM22.982 21.6609C21.4903 21.649 20.2469 20.3952 20.24 18.8967C20.2367 18.532 20.3059 18.1702 20.4437 17.8325C20.5815 17.4948 20.7852 17.1879 21.0427 16.9297C21.3003 16.6714 21.6067 16.467 21.944 16.3282C22.2813 16.1895 22.6429 16.1193 23.0076 16.1217C24.5678 16.1262 25.7747 17.3383 25.7679 18.8939C25.7648 19.6301 25.4698 20.335 24.9474 20.8538C24.4251 21.3726 23.7182 21.6629 22.982 21.6609Z" fill="black"/>
<path d="M14.5106 11.4086C12.9819 11.4086 11.4531 11.4086 9.92434 11.4086C9.31318 11.4086 9.1825 11.2751 9.1825 10.6548C9.1768 9.42069 9.1768 8.18657 9.1825 6.95246C9.18536 6.3567 9.33429 6.21062 9.9426 6.21062C12.9819 6.20795 16.0211 6.20795 19.0604 6.21062C19.6847 6.21062 19.8239 6.34415 19.8268 6.94333C19.8329 8.17706 19.8329 9.41118 19.8268 10.6457C19.8228 11.3122 19.7195 11.4081 19.0438 11.4092C17.5311 11.4086 16.0211 11.4086 14.5106 11.4086Z" fill="black"/>
<path d="M10.1843 20.454C11.6377 20.454 13.0906 20.454 14.544 20.454C15.1666 20.454 15.2859 20.5755 15.2933 21.1987C15.3001 21.9896 15.2853 22.7805 15.2933 23.5714C15.2984 24.0377 15.085 24.2305 14.6216 24.2294C11.66 24.2222 8.69834 24.2222 5.73668 24.2294C5.295 24.2294 5.09299 24.0257 5.09299 23.596C5.09299 22.7862 5.10497 21.9765 5.09014 21.1673C5.08044 20.6486 5.31098 20.4426 5.82399 20.4477C7.27743 20.4637 8.73086 20.454 10.1843 20.454Z" fill="black"/>
<path d="M10.1836 29.319C8.73015 29.319 7.27671 29.3082 5.82384 29.3242C5.31026 29.3299 5.082 29.1273 5.09056 28.6074C5.10597 27.8171 5.09969 27.0256 5.09056 26.2347C5.08543 25.7479 5.30912 25.5413 5.79759 25.5425C8.72235 25.5501 11.6473 25.549 14.5724 25.5391C15.086 25.5391 15.3086 25.7411 15.296 26.2621C15.2766 27.0524 15.2829 27.8439 15.296 28.6348C15.3046 29.1273 15.0871 29.3282 14.5964 29.3236C13.127 29.3105 11.6553 29.319 10.1836 29.319Z" fill="black"/>
<path d="M10.1614 16.0925C8.78154 16.0925 7.40152 16.0925 6.02132 16.0925C5.8564 16.0925 5.66238 16.1285 5.53342 16.0566C5.36222 15.9613 5.12198 15.7672 5.13111 15.6303C5.1431 15.4465 5.34111 15.2468 5.5066 15.1121C5.60018 15.0368 5.78907 15.0705 5.93515 15.0705C8.75034 15.0682 11.5655 15.0682 14.3807 15.0705C14.4732 15.0705 14.565 15.0705 14.6569 15.0739C14.9902 15.095 15.2447 15.2371 15.239 15.6C15.2333 15.963 14.9616 16.088 14.6329 16.088C13.3633 16.0925 12.0936 16.0914 10.8239 16.0925H10.1614Z" fill="black"/>
<path d="M10.1652 18.6297C8.73064 18.6297 7.29603 18.6263 5.86086 18.6297C5.48138 18.6297 5.10532 18.5875 5.11902 18.1161C5.13043 17.6527 5.51847 17.6077 5.88825 17.6077H14.4964C14.8736 17.6077 15.2486 17.6739 15.2383 18.1389C15.228 18.604 14.8428 18.6348 14.4702 18.6337C13.0356 18.6291 11.601 18.6337 10.1664 18.6337L10.1652 18.6297Z" fill="black"/>
<path d="M10.1319 13.5424C8.75323 13.5424 7.37436 13.5424 5.9953 13.5424C5.84864 13.5424 5.66946 13.58 5.56275 13.5116C5.38471 13.3974 5.13591 13.2103 5.13477 13.055C5.13477 12.8878 5.36302 12.6893 5.53821 12.5631C5.63751 12.4907 5.82354 12.5283 5.96905 12.5283C8.76332 12.5283 11.5578 12.5283 14.3524 12.5283C14.4626 12.5283 14.5733 12.5249 14.6828 12.5346C15.0206 12.5631 15.3008 12.7418 15.2187 13.079C15.173 13.2673 14.8563 13.511 14.6537 13.5184C13.497 13.5612 12.338 13.5401 11.1802 13.5407H10.1319V13.5424Z" fill="black"/>
<path d="M23.015 17.1112C23.486 17.1091 23.9385 17.2943 24.273 17.6258C24.6074 17.9574 24.7965 18.4083 24.7985 18.8793C24.8006 19.3503 24.6155 19.8028 24.2839 20.1373C23.9523 20.4718 23.5014 20.6608 23.0304 20.6629C22.557 20.6653 22.1019 20.4802 21.7645 20.1481C21.4271 19.816 21.235 19.3638 21.23 18.8904C21.2286 18.6559 21.2739 18.4235 21.3632 18.2066C21.4525 17.9897 21.584 17.7928 21.7501 17.6272C21.9162 17.4616 22.1136 17.3308 22.3307 17.2422C22.5479 17.1536 22.7805 17.109 23.015 17.1112Z" fill="black"/>
</svg>
