<svg width="27" height="29" viewBox="0 0 27 29" fill="none" xmlns="http://www.w3.org/2000/svg">
<path d="M2.05391 9.71155V26.859H24.8039V9.70211C23.8313 9.70211 22.8933 9.71297 21.9558 9.6988C21.1148 9.68558 20.6468 9.28845 20.6518 8.62877C20.6563 7.99175 21.1669 7.55968 21.9677 7.55118C23.1424 7.5389 24.3176 7.54268 25.4928 7.55118C26.6574 7.55732 26.9888 7.87701 26.9911 9.06226C26.9996 14.0957 27.0018 19.1287 26.9975 24.1613C26.9975 25.2568 27.003 26.3523 26.9975 27.4474C26.9925 28.6237 26.646 28.9996 25.5147 29.0005C19.6978 29.0043 13.8808 29.0029 8.06366 28.9962C5.88565 28.9962 3.7081 29.0066 1.53009 28.9887C0.30876 28.9783 0.00251397 28.6421 0.00205688 27.3973C-0.000685627 21.2982 -0.000685627 15.1993 0.00205688 9.10051C0.00205688 7.90959 0.3403 7.5474 1.46473 7.53985C2.6111 7.53229 3.75747 7.53229 4.90383 7.53985C5.8692 7.54504 6.36422 7.92989 6.35234 8.64577C6.34045 9.36164 5.86097 9.704 4.86453 9.71108C3.95356 9.71675 3.04304 9.71155 2.05391 9.71155Z" fill="#525252"/>
<path d="M14.4697 4.07189C14.4697 4.58943 14.4697 5.10682 14.4697 5.62405C14.4697 7.63473 14.4565 9.64542 14.4729 11.6561C14.4793 12.4149 14.2211 12.9443 13.4536 13.0317C12.8288 13.103 12.3479 12.4872 12.3447 11.6443C12.3356 9.13684 12.3415 6.62939 12.3415 3.81548C11.5787 4.59793 11.0027 5.217 10.3939 5.79877C10.1288 6.05235 9.79512 6.39659 9.49207 6.39706C9.13143 6.39706 8.55459 6.14962 8.46226 5.87102C8.33565 5.48994 8.42935 4.84112 8.68623 4.54646C9.7197 3.36263 10.8533 2.27228 11.9466 1.1437C12.2094 0.872647 12.4407 0.565708 12.72 0.314963C13.2077 -0.12325 13.7384 -0.100111 14.1827 0.358879C15.5151 1.7368 16.8274 3.13549 18.1355 4.53796C18.8331 5.28547 18.6233 6.28137 17.705 6.42681C17.38 6.47734 16.9243 6.26815 16.6656 6.02307C15.9799 5.37236 15.3693 4.63807 14.7284 3.93684L14.4697 4.07189Z" fill="#525252"/>
<path d="M13.3802 17.2457H6.93078C6.78725 17.2457 6.64373 17.2457 6.50066 17.2457C5.43245 17.2211 4.95068 16.8778 4.95068 16.144C4.95068 15.3974 5.44708 15.0503 6.49746 15.0518C8.16033 15.0546 9.82306 15.0546 11.4856 15.0518L20.3444 15.0588C20.4015 15.0588 20.4591 15.0588 20.5163 15.0588C21.3541 15.0928 21.8153 15.4838 21.813 16.1515C21.8107 16.8193 21.334 17.2376 20.5176 17.2419C18.1385 17.2527 15.7594 17.2461 13.3802 17.2457Z" fill="#525252"/>
<path d="M13.4016 21.5736C15.8917 21.5736 18.3838 21.5618 20.8726 21.5797C21.7891 21.5859 22.3622 22.3773 21.9298 23.0936C21.7324 23.4204 21.2058 23.7137 20.826 23.717C15.8739 23.7562 10.9214 23.7392 5.97072 23.7406C5.26818 23.7406 4.79739 23.4572 4.76539 22.68C4.73705 21.9835 5.19962 21.5698 6.01735 21.5665C8.47921 21.5566 10.9411 21.5632 13.4029 21.5632L13.4016 21.5736Z" fill="#525252"/>
</svg>
