<svg width="24" height="24" viewBox="0 0 24 24" fill="none" xmlns="http://www.w3.org/2000/svg">
<path fill-rule="evenodd" clip-rule="evenodd" d="M9.95182 3.79279C10.8563 2.73574 12.491 2.73574 13.3948 3.79279L13.7798 4.23826C13.9641 4.45721 14.254 4.54782 14.5296 4.48742L15.1064 4.34396C16.4587 4.0193 17.7815 4.98574 17.891 6.36745L17.9386 6.96393C17.9605 7.24329 18.1394 7.49245 18.4014 7.59815L18.9495 7.82466C20.2339 8.36074 20.739 9.91611 20.0126 11.1015L19.7038 11.6074C19.5551 11.849 19.5551 12.151 19.7038 12.3926L20.0126 12.8985C20.739 14.0839 20.2339 15.6393 18.9495 16.1753L18.4014 16.4018C18.1394 16.5076 17.9605 16.7567 17.9386 17.0361L17.891 17.6326C17.7815 19.0143 16.4587 19.9807 15.1064 19.656L14.5296 19.5126C14.254 19.4522 13.9641 19.5428 13.7798 19.7617L13.3948 20.2072C12.491 21.2643 10.8563 21.2643 9.95182 20.2072L9.56675 19.7617C9.38252 19.5428 9.09334 19.4522 8.817 19.5126L8.24015 19.656C6.88789 19.9807 5.56583 19.0143 5.45559 17.6326L5.40802 17.0361C5.38613 16.7567 5.20718 16.5076 4.94519 16.4018L4.39779 16.1753C3.11272 15.6393 2.6076 14.0839 3.33395 12.8985L3.64275 12.3926C3.7915 12.151 3.7915 11.849 3.64275 11.6074L3.33395 11.1015C2.6076 9.91611 3.11272 8.36074 4.39779 7.82466L4.94519 7.59815C5.20718 7.49245 5.38613 7.24329 5.40802 6.96393L5.45559 6.36745C5.56583 4.98574 6.88789 4.0193 8.24015 4.34396L8.817 4.48742C9.09334 4.54782 9.38252 4.45721 9.56675 4.23826L9.95182 3.79279ZM12.2471 4.77433C11.9459 4.41946 11.4007 4.41946 11.0995 4.77433L10.7136 5.2198C10.1617 5.86913 9.29267 6.14849 8.46515 5.95218L7.88906 5.81628C7.43831 5.71057 6.99737 6.02768 6.96037 6.48826L6.91356 7.07718C6.84636 7.93037 6.30953 8.6703 5.52354 8.99497L4.97614 9.22148C4.54804 9.39513 4.37967 9.91611 4.62203 10.3087L4.93084 10.8146C5.3748 11.547 5.3748 12.453 4.93084 13.1854L4.62203 13.6913C4.37967 14.0839 4.54804 14.6049 4.97614 14.7785L5.52354 15.005C6.30953 15.3297 6.84636 16.0696 6.91356 16.9228L6.96037 17.5117C6.99737 17.9723 7.43831 18.2894 7.88906 18.1837L8.46515 18.0478C9.29267 17.8515 10.1617 18.1309 10.7136 18.7802L11.0995 19.2257C11.4007 19.5805 11.9459 19.5805 12.2471 19.2257L12.6329 18.7802C13.1856 18.1309 14.0539 17.8515 14.8814 18.0478L15.4575 18.1837C15.9083 18.2894 16.3492 17.9723 16.3862 17.5117L16.433 16.9228C16.5002 16.0696 17.0371 15.3297 17.823 15.005L18.3704 14.7785C18.7985 14.6049 18.9669 14.0839 18.7246 13.6913L18.4157 13.1854C17.9718 12.453 17.9718 11.547 18.4157 10.8146L18.7246 10.3087C18.9669 9.91611 18.7985 9.39513 18.3704 9.22148L17.823 8.99497C17.0371 8.6703 16.5002 7.93037 16.433 7.07718L16.3862 6.48826C16.3492 6.02768 15.9083 5.71057 15.4575 5.81628L14.8814 5.95218C14.0539 6.14849 13.1856 5.86913 12.6329 5.2198L12.2471 4.77433ZM10.697 9.19883C10.9923 9.49329 10.9923 9.97651 10.697 10.271L9.942 11.026C9.64678 11.3205 9.1696 11.3205 8.87438 11.026C8.57916 10.7315 8.57916 10.2483 8.87438 9.95386L9.62942 9.19883C9.92463 8.90436 10.4018 8.90436 10.697 9.19883ZM14.4722 9.19883C14.7674 9.49329 14.7674 9.97651 14.4722 10.271L9.942 14.8012C9.64678 15.0956 9.1696 15.0956 8.87438 14.8012C8.57916 14.5067 8.57916 14.0235 8.87438 13.729L13.4046 9.19883C13.6998 8.90436 14.177 8.90436 14.4722 9.19883ZM14.4722 12.974C14.7674 13.2685 14.7674 13.7517 14.4722 14.0461L13.7172 14.8012C13.4219 15.0956 12.9448 15.0956 12.6496 14.8012C12.3543 14.5067 12.3543 14.0235 12.6496 13.729L13.4046 12.974C13.6998 12.6795 14.177 12.6795 14.4722 12.974Z" fill="#131313"/>
</svg>
