<svg width="24" height="24" viewBox="0 0 24 24" fill="none" xmlns="http://www.w3.org/2000/svg">
<path fill-rule="evenodd" clip-rule="evenodd" d="M8.48263 15.5402C8.18136 15.239 7.69292 15.239 7.39166 15.5402C7.0904 15.8415 7.0904 16.3299 7.39166 16.6312L11.5059 20.7455C11.8072 21.0468 12.2956 21.0468 12.5969 20.7455L16.7112 16.6312C17.0125 16.3299 17.0125 15.8415 16.7112 15.5402C16.4099 15.239 15.9215 15.239 15.6202 15.5402L12.8229 18.3376L12.8229 10.6343C12.8229 10.3787 12.4775 10.1714 12.0514 10.1714C11.6254 10.1714 11.28 10.3787 11.28 10.6343L11.28 18.3376L8.48263 15.5402ZM4.54286 6.69715V15.6571C4.54286 16.0359 4.19748 16.3429 3.77143 16.3429C3.34538 16.3429 3 16.0359 3 15.6571V6.69715C3 5.22137 4.24912 4.00001 5.82857 4.00001L18.1714 4.00001C19.7509 4.00001 21 5.22137 21 6.69715V15.6571C21 16.0359 20.6546 16.3429 20.2286 16.3429C19.8025 16.3429 19.4571 16.0359 19.4571 15.6571V6.69715C19.4571 5.95117 18.8642 5.37144 18.1714 5.37144L5.82857 5.37144C5.13576 5.37144 4.54286 5.95117 4.54286 6.69715Z" fill="#131313"/>
</svg>
