<svg width="24" height="24" viewBox="0 0 24 24" fill="none" xmlns="http://www.w3.org/2000/svg">
<path fill-rule="evenodd" clip-rule="evenodd" d="M7.21967 14.2197C7.51256 13.9268 7.98744 13.9268 8.28033 14.2197L11 16.9393V4.75C11 4.33579 11.3358 4 11.75 4C12.1642 4 12.5 4.33579 12.5 4.75V16.9393L15.2197 14.2197C15.5126 13.9268 15.9874 13.9268 16.2803 14.2197C16.5732 14.5126 16.5732 14.9874 16.2803 15.2803L12.2803 19.2803C12.1345 19.4262 11.9434 19.4994 11.7522 19.5C11.7515 19.5 11.7507 19.5 11.75 19.5C11.7492 19.5 11.7485 19.5 11.7478 19.5C11.6469 19.4997 11.5507 19.4795 11.4629 19.4431C11.3745 19.4065 11.2916 19.3522 11.2197 19.2803L7.21967 15.2803C6.92678 14.9874 6.92678 14.5126 7.21967 14.2197Z" fill="#131313"/>
</svg>
