<svg width="24" height="24" viewBox="0 0 24 24" fill="none" xmlns="http://www.w3.org/2000/svg">
<path fill-rule="evenodd" clip-rule="evenodd" d="M12 8.54351C8.00849 8.54351 5.60448 10.9282 4.63593 12.1484C4.51244 12.3035 4.51244 12.5011 4.63593 12.6562C5.60448 13.8763 8.00849 16.261 12 16.261C15.9915 16.261 18.3963 13.8763 19.3641 12.6562C19.4876 12.5011 19.4876 12.3035 19.3641 12.1484C18.3963 10.9282 15.9915 8.54351 12 8.54351ZM3.42659 11.1891C4.53097 9.79838 7.33166 7 12 7C16.6683 7 19.4698 9.79838 20.5734 11.1891C21.1422 11.906 21.1422 12.8985 20.5734 13.6155C19.4698 15.0062 16.6683 17.8046 12 17.8046C7.33166 17.8046 4.53097 15.0062 3.42659 13.6155C2.8578 12.8985 2.8578 11.906 3.42659 11.1891ZM12 10.8588C11.148 10.8588 10.4565 11.5503 10.4565 12.4023C10.4565 13.2543 11.148 13.9458 12 13.9458C12.852 13.9458 13.5435 13.2543 13.5435 12.4023C13.5435 11.5503 12.852 10.8588 12 10.8588ZM8.91298 12.4023C8.91298 10.6975 10.2952 9.31526 12 9.31526C13.7048 9.31526 15.087 10.6975 15.087 12.4023C15.087 14.1071 13.7048 15.4893 12 15.4893C10.2952 15.4893 8.91298 14.1071 8.91298 12.4023Z" fill="#131313"/>
</svg>
