<svg width="27" height="25" viewBox="0 0 27 25" fill="none" xmlns="http://www.w3.org/2000/svg">
<path d="M27 16.1539C26.9776 16.2084 26.9506 16.2617 26.9342 16.3191C26.6362 17.3456 25.7589 17.9996 24.6677 18C18.5629 18 12.4582 18 6.35347 18C5.01746 18 4.00975 17.0181 4.003 15.703C3.99625 14.4557 4.003 13.2087 4.003 11.9613C4.003 8.75556 4.003 5.54966 4.003 2.34363C4.003 1.20402 4.70603 0.315457 5.81163 0.0644129C6.04874 0.0173362 6.29054 -0.00316609 6.53239 0.00330313C12.5111 -7.47553e-08 18.4892 -0.000825775 24.4668 0.000825828C25.8146 0.000825828 26.581 0.564848 26.9637 1.83287C26.9684 1.84773 26.9865 1.85847 26.9983 1.87127L27 16.1539ZM13.742 12.0992L15.6089 9.91086C16.4529 8.9199 17.2968 7.92797 18.1408 6.93508C18.5105 6.49865 18.9671 6.24347 19.557 6.24719C20.1056 6.25049 20.5415 6.47594 20.8926 6.87686L25.3614 11.9762C25.5028 12.1376 25.645 12.2978 25.7868 12.4585L25.8425 12.4353V9.85801C25.8425 7.37234 25.8425 4.88668 25.8425 2.40102C25.8425 1.61238 25.3846 1.133 24.6251 1.13259C18.5485 1.13039 12.4718 1.13039 6.39524 1.13259C5.65803 1.13259 5.17908 1.60288 5.17908 2.31761C5.17739 6.42818 5.17739 10.5386 5.17908 14.6489C5.17908 14.7224 5.1892 14.7955 5.19511 14.8686L5.26559 14.9123C5.32325 14.8243 5.38743 14.7405 5.45759 14.6617C6.83298 13.3129 8.21007 11.9649 9.58884 10.6177C10.3864 9.83901 11.4346 9.84108 12.2338 10.6198C12.7284 11.1029 13.2213 11.5885 13.742 12.0992ZM5.36053 16.3567C5.65592 16.7729 6.04795 16.8695 6.502 16.8691C9.91391 16.8647 13.3257 16.8638 16.7373 16.8666C19.3409 16.8666 21.9447 16.8666 24.5487 16.8666C25.404 16.8666 25.837 16.4388 25.8421 15.5994C25.8421 15.2393 25.8573 14.8785 25.8353 14.5197C25.8281 14.3668 25.7738 14.2197 25.6796 14.0977C23.8116 11.9506 21.9388 9.80791 20.0613 7.66963C19.719 7.27903 19.3625 7.28027 19.0261 7.675C17.4625 9.50938 15.8989 11.3439 14.3353 13.1786C13.9627 13.615 13.664 13.6241 13.2584 13.2273C12.6423 12.6247 12.0264 12.0223 11.4106 11.42C11.0675 11.0856 10.7561 11.0868 10.413 11.42C9.72654 12.0903 9.04068 12.761 8.35537 13.4321C7.36454 14.4016 6.37288 15.3686 5.36053 16.3567Z" fill="currentColor"/>
<path d="M19.499 25C18.636 24.7688 17.7742 24.5343 16.9104 24.3071C11.9043 22.9893 6.89734 21.6733 1.88958 20.3591C0.881686 20.0958 0.217577 19.518 0.0308217 18.5019C-0.0237102 18.1668 -0.00573405 17.8243 0.0835819 17.4965C0.790822 14.8438 1.52067 12.1985 2.24424 9.54862C2.35856 9.13135 2.64288 8.93257 2.9921 9.02046C3.31746 9.1026 3.47322 9.41679 3.36896 9.79586C2.96446 11.2848 2.55885 12.7734 2.15212 14.2618C1.83305 15.4307 1.51411 16.5995 1.19532 17.7684C1.00605 18.4666 1.34941 19.0457 2.06335 19.2329C7.87592 20.7572 13.6878 22.2813 19.499 23.8053C20.2485 24.0016 20.8012 23.6919 21.0064 22.9609C21.292 21.9366 21.5717 20.9107 21.8569 19.8864C21.9465 19.5644 22.1822 19.3783 22.4611 19.396C22.5958 19.4042 22.7234 19.4584 22.8217 19.5493C22.9199 19.6401 22.9825 19.7619 22.9987 19.8933C23.0049 20.0147 22.9887 20.1361 22.951 20.2519C22.6801 21.2441 22.3974 22.2335 22.1311 23.2266C21.8845 24.1462 21.3092 24.7298 20.3616 24.9515C20.3389 24.9569 20.3197 24.9819 20.3021 24.9975L19.499 25Z" fill="currentColor"/>
<path d="M10.4826 7.99999C9.82564 7.99483 9.19701 7.73041 8.73251 7.26382C8.26801 6.79723 8.0049 6.16591 8.00001 5.50619C7.99681 4.13017 9.12964 2.99725 10.5027 3.00001C11.8758 3.00276 13.0041 4.13568 13 5.5117C12.9959 6.88771 11.8667 8.00275 10.4826 7.99999ZM9.27033 5.48418C9.27077 5.80751 9.39745 6.11777 9.62318 6.34836C9.8489 6.57894 10.1557 6.71146 10.4776 6.71747C10.7996 6.72347 11.111 6.60248 11.3451 6.38047C11.5792 6.15846 11.7173 5.85313 11.7297 5.53004C11.7388 4.8246 11.1815 4.24805 10.4963 4.25218C10.1723 4.25623 9.86264 4.38736 9.63356 4.61756C9.40448 4.84775 9.27412 5.15877 9.27033 5.48418Z" fill="currentColor"/>
</svg>
