<svg width="31" height="28" viewBox="0 0 31 28" fill="none" xmlns="http://www.w3.org/2000/svg">
<g clip-path="url(#clip0_60_910)">
<path d="M30.9998 25.0253C30.5787 25.576 30.2279 25.5948 29.7191 25.0934C28.0207 23.4219 26.3232 21.7501 24.6267 20.078C24.5473 19.9998 24.4798 19.9149 24.3987 19.8242C22.5654 21.2884 20.5009 21.8825 18.1989 21.545C16.2373 21.256 14.6066 20.3326 13.362 18.8073C10.8224 15.6989 11.0953 11.262 13.9686 8.53525C16.8502 5.80033 21.3455 5.64663 24.3522 8.14064C27.4539 10.7136 28.2107 15.4517 25.2913 18.9583C25.459 19.1085 25.6365 19.2559 25.8006 19.4167C27.3999 20.9873 28.9975 22.5601 30.5934 24.1352C30.7408 24.2811 30.8651 24.45 30.9998 24.608V25.0253ZM19.3521 20.3463C22.8844 20.3819 25.7811 17.5543 25.8209 14.0317C25.8606 10.5509 23.0072 7.70926 19.4168 7.65451C15.8925 7.60053 12.9854 10.4242 12.9322 13.9511C12.8805 17.4409 15.7614 20.3103 19.3521 20.3463Z" fill="currentColor"/>
<path d="M11.6608 0.00150837H22.3435C22.4443 -0.00247766 22.5453 -0.000779952 22.6458 0.00659278C23.0002 0.0457022 23.2453 0.304607 23.2509 0.636646C23.2568 0.983155 23.0125 1.25301 22.6435 1.29408C22.5429 1.30145 22.4419 1.30314 22.3412 1.29916C15.1992 1.29916 8.05693 1.29916 0.914419 1.29916C0.803646 1.3042 0.692645 1.3012 0.582321 1.29016C0.231551 1.2401 -4.43468e-05 0.970249 0.00750336 0.633908C0.0138593 0.313993 0.245852 0.0582171 0.584704 0.0101125C0.695196 -0.000399001 0.8063 -0.00327412 0.9172 0.00150837C4.49852 0.00124764 8.07971 0.00124764 11.6608 0.00150837Z" fill="currentColor"/>
<path d="M11.5996 27.9989H0.82504C0.38489 27.9989 0.128665 27.8495 0.0305452 27.5409C-0.0945877 27.1498 0.177527 26.7556 0.613307 26.7059C0.714035 26.6987 0.8151 26.6971 0.916009 26.7012H22.3423C22.4431 26.6973 22.544 26.6989 22.6446 26.7059C22.999 26.745 23.2449 27.0031 23.2508 27.3348C23.2572 27.6817 23.0125 27.9519 22.6446 27.9938C22.5441 28.0011 22.4431 28.0028 22.3423 27.9989H11.5996Z" fill="currentColor"/>
<path d="M5.81609 21.6279H0.794482C0.301498 21.6279 0.0146852 21.3999 0.007932 21.0053C0.0011788 20.5907 0.280841 20.3502 0.798455 20.3494C3.12897 20.3463 5.4583 20.3463 7.78643 20.3494C8.81491 20.3494 9.84378 20.3459 10.8723 20.3517C11.3231 20.3545 11.5929 20.568 11.627 20.9212C11.6667 21.3295 11.3772 21.6279 10.9283 21.6287C9.2246 21.6297 7.52054 21.6294 5.81609 21.6279Z" fill="currentColor"/>
<path d="M5.81631 6.37211C7.5303 6.37211 9.24456 6.37211 10.9591 6.37211C11.2959 6.37211 11.5609 6.57939 11.6209 6.87037C11.6793 7.15469 11.5474 7.44841 11.2801 7.56612C11.1511 7.62031 11.0123 7.64786 10.8721 7.64708C7.50395 7.65125 4.13582 7.65125 0.767694 7.64708C0.364885 7.64708 0.118194 7.49064 0.0331828 7.19615C-0.0462667 6.92238 0.0125257 6.66583 0.257627 6.51056C0.410923 6.42115 0.585941 6.37426 0.764118 6.37485C2.44805 6.3682 4.13158 6.37211 5.81631 6.37211Z" fill="currentColor"/>
<path d="M4.5076 14.6488C3.25865 14.6488 2.00957 14.6488 0.760361 14.6488C0.442563 14.6488 0.187133 14.5452 0.05485 14.2413C-0.125103 13.8279 0.16449 13.3875 0.64516 13.3547C0.885892 13.3383 1.12861 13.3504 1.37014 13.3504C3.66702 13.3504 5.96377 13.3504 8.26039 13.3504C8.67989 13.3504 8.95359 13.5283 9.02629 13.8389C9.13037 14.2843 8.8221 14.6441 8.31561 14.6461C7.04601 14.6523 5.7768 14.6488 4.5076 14.6488Z" fill="currentColor"/>
</g>
<defs>
<clipPath id="clip0_60_910">
<rect width="31" height="28" fill="white"/>
</clipPath>
</defs>
</svg>
