<svg width="24" height="24" viewBox="0 0 24 24" fill="none" xmlns="http://www.w3.org/2000/svg">
<path fill-rule="evenodd" clip-rule="evenodd" d="M8.94536 8.96834C9.24662 8.66708 9.24662 8.17864 8.94536 7.87738C8.6441 7.57612 8.15565 7.57612 7.85439 7.87738L3.74011 11.9917C3.43884 12.2929 3.43884 12.7814 3.74011 13.0826L7.85439 17.1969C8.15565 17.4982 8.6441 17.4982 8.94536 17.1969C9.24662 16.8957 9.24662 16.4072 8.94536 16.1059L6.14798 13.3086H13.8513C14.1069 13.3086 14.3142 12.9632 14.3142 12.5371C14.3142 12.1111 14.1069 11.7657 13.8513 11.7657H6.14798L8.94536 8.96834ZM17.7884 5.02858H8.82845C8.44974 5.02858 8.14273 4.6832 8.14273 4.25715C8.14273 3.8311 8.44974 3.48572 8.82845 3.48572H17.7884C19.2642 3.48572 20.4856 4.73484 20.4856 6.31429V18.6571C20.4856 20.2366 19.2642 21.4857 17.7884 21.4857H8.82845C8.44974 21.4857 8.14273 21.1403 8.14273 20.7143C8.14273 20.2882 8.44974 19.9429 8.82845 19.9429H17.7884C18.5344 19.9429 19.1142 19.35 19.1142 18.6571V6.31429C19.1142 5.62148 18.5344 5.02858 17.7884 5.02858Z" fill="#131313"/>
</svg>
