<svg width="24" height="24" viewBox="0 0 24 24" fill="none" xmlns="http://www.w3.org/2000/svg">
<path fill-rule="evenodd" clip-rule="evenodd" d="M9.28033 7.21967C9.57322 7.51256 9.57322 7.98744 9.28033 8.28033L6.56066 11H18.75C19.1642 11 19.5 11.3358 19.5 11.75C19.5 12.1642 19.1642 12.5 18.75 12.5H6.56066L9.28033 15.2197C9.57322 15.5126 9.57322 15.9874 9.28033 16.2803C8.98744 16.5732 8.51256 16.5732 8.21967 16.2803L4.21967 12.2803C4.0738 12.1345 4.00057 11.9434 4 11.7522C4 11.7515 4 11.7507 4 11.75C4 11.7492 4 11.7485 4 11.7478C4.0003 11.6469 4.02051 11.5507 4.05691 11.4629C4.09351 11.3745 4.14776 11.2916 4.21967 11.2197L8.21967 7.21967C8.51256 6.92678 8.98744 6.92678 9.28033 7.21967Z" fill="#131313"/>
</svg>
