<svg width="24" height="24" viewBox="0 0 24 24" fill="none" xmlns="http://www.w3.org/2000/svg">
<path fill-rule="evenodd" clip-rule="evenodd" d="M3.23325 7.25175C3.6 6.5115 4.36425 6 5.25 6H18.75C19.6357 6 20.4 6.5115 20.7668 7.25175C20.916 7.55325 21 7.893 21 8.25V15.75C21 16.9928 19.9928 18 18.75 18H5.25C4.00725 18 3 16.9928 3 15.75V8.25C3 7.893 3.084 7.55325 3.23325 7.25175ZM5.316 7.5L11.6407 10.95C11.865 11.0722 12.135 11.0722 12.3593 10.95L18.684 7.5H5.316ZM19.5 8.76375L13.0778 12.2663C12.4058 12.633 11.5942 12.633 10.9222 12.2663L4.5 8.76375V15.75C4.5 16.164 4.836 16.5 5.25 16.5H18.75C19.164 16.5 19.5 16.164 19.5 15.75V8.76375Z" fill="#131313"/>
</svg>
