<svg width="24" height="24" viewBox="0 0 24 24" fill="none" xmlns="http://www.w3.org/2000/svg">
<path fill-rule="evenodd" clip-rule="evenodd" d="M15.75 6.7708V14.8858L15.849 14.9308L19.5 16.4908V8.3758L15.75 6.7708ZM14.25 14.8633V6.7108L9.82725 8.3683L9.75 8.3983V16.5508L14.1728 14.8933L14.25 14.8633ZM8.98425 18.2608C9.26925 18.2683 9.55575 18.2233 9.82725 18.1183L14.6993 16.2958C14.79 16.2583 14.886 16.2433 14.9812 16.2508C15.0757 16.2508 15.1702 16.2733 15.258 16.3108L18.909 17.8708C19.899 18.2983 21 17.5708 21 16.4908V8.3758C21 7.7758 20.6423 7.2358 20.091 6.9958L15.849 5.1808C15.5835 5.0683 15.3015 5.0083 15.0188 5.0008C14.733 4.9933 14.4458 5.0383 14.1728 5.1433L9.30075 6.9658C9.21 7.0033 9.1155 7.0183 9.02025 7.0108C8.92575 7.0108 8.8305 6.9958 8.742 6.9508L5.091 5.3908C4.101 4.9633 3 5.6908 3 6.7708V14.8858C3 15.4858 3.35775 16.0258 3.909 16.2658L8.151 18.0808C8.415 18.1933 8.6955 18.2533 8.9775 18.2608H8.98425ZM8.25 16.4908V8.3758L8.151 8.3308L4.5 6.7708V14.8858L8.25 16.4908Z" fill="#131313"/>
</svg>
