<svg width="24" height="24" viewBox="0 0 24 24" fill="none" xmlns="http://www.w3.org/2000/svg">
<path fill-rule="evenodd" clip-rule="evenodd" d="M10.9222 5.27506C11.5942 4.90831 12.4058 4.90831 13.0778 5.27506L20.6092 9.38281C20.85 9.51406 21 9.76681 21 10.0413V17.5413C21 18.7841 19.9928 19.7913 18.75 19.7913H5.25C4.00725 19.7913 3 18.7841 3 17.5413V10.0413C3 9.76681 3.15 9.51406 3.39075 9.38281L10.9222 5.27506ZM12.3593 6.59131C12.135 6.46906 11.8643 6.46906 11.6407 6.59131L5.316 10.0413L11.6407 13.4913C11.8643 13.6136 12.135 13.6136 12.3593 13.4913L18.684 10.0413L12.3593 6.59131ZM19.5 11.3051L13.0778 14.8076C12.4058 15.1743 11.5942 15.1743 10.9222 14.8076L4.5 11.3051V17.5413C4.5 17.9553 4.836 18.2913 5.25 18.2913H18.75C19.164 18.2913 19.5 17.9553 19.5 17.5413V11.3051Z" fill="#131313"/>
</svg>
