<svg width="24" height="24" viewBox="0 0 24 24" fill="none" xmlns="http://www.w3.org/2000/svg">
<path fill-rule="evenodd" clip-rule="evenodd" d="M12 3.81818C12 3.36655 12.3665 3 12.8182 3C17.337 3 21 6.663 21 11.1818C21 11.6335 20.6335 12 20.1818 12H19.3235C19.3497 12.2692 19.3636 12.5425 19.3636 12.8182C19.3636 17.337 15.7006 21 11.1818 21C6.663 21 3 17.337 3 12.8182C3 8.29936 6.663 4.63636 11.1818 4.63636C11.4575 4.63636 11.7308 4.65027 12 4.67645V3.81818ZM12 6.32345C11.7325 6.28991 11.4592 6.27273 11.1818 6.27273C7.56709 6.27273 4.63636 9.20345 4.63636 12.8182C4.63636 16.4329 7.56709 19.3636 11.1818 19.3636C14.7965 19.3636 17.7273 16.4329 17.7273 12.8182C17.7273 12.5408 17.7101 12.2675 17.6765 12H12.8182C12.3665 12 12 11.6335 12 11.1818V6.32345ZM13.6364 4.68709V10.3636H19.3129C18.9439 7.40264 16.5974 5.05609 13.6364 4.68709Z" fill="#131313"/>
</svg>
