<svg width="24" height="24" viewBox="0 0 24 24" fill="none" xmlns="http://www.w3.org/2000/svg">
<path fill-rule="evenodd" clip-rule="evenodd" d="M12 21C16.9706 21 21 16.9706 21 12C21 7.02944 16.9706 3 12 3C7.02944 3 3 7.02944 3 12C3 16.9706 7.02944 21 12 21ZM12 19.6154C7.79414 19.6154 4.38462 16.2059 4.38462 12C4.38462 7.79414 7.79414 4.38462 12 4.38462C16.2059 4.38462 19.6154 7.79414 19.6154 12C19.6154 16.2059 16.2059 19.6154 12 19.6154ZM11.1694 9.29409C10.5031 8.9324 9.69231 9.4148 9.69231 10.173V13.827C9.69231 14.5852 10.503 15.0676 11.1694 14.7059L14.5352 12.8789C15.2324 12.5004 15.2324 11.4996 14.5352 11.1211L11.1694 9.29409Z" fill="#131313"/>
</svg>
