<svg width="24" height="24" viewBox="0 0 24 24" fill="none" xmlns="http://www.w3.org/2000/svg">
<path fill-rule="evenodd" clip-rule="evenodd" d="M15.0546 16.0031C14.7534 16.3044 14.7534 16.7928 15.0546 17.0941C15.3559 17.3953 15.8443 17.3953 16.1456 17.0941L20.2599 12.9798C20.5612 12.6785 20.5612 12.1901 20.2599 11.8888L16.1456 7.77452C15.8443 7.47326 15.3559 7.47326 15.0546 7.77452C14.7534 8.07578 14.7534 8.56422 15.0546 8.86549L17.852 11.6629L10.1487 11.6629C9.89307 11.6629 9.68584 12.0082 9.68584 12.4343C9.68584 12.8603 9.89307 13.2057 10.1487 13.2057L17.852 13.2057L15.0546 16.0031ZM6.21155 19.9429L15.1716 19.9429C15.5503 19.9429 15.8573 20.2882 15.8573 20.7143C15.8573 21.1403 15.5503 21.4857 15.1716 21.4857L6.21155 21.4857C4.73577 21.4857 3.51441 20.2366 3.51441 18.6571L3.51441 6.31429C3.51441 4.73484 4.73577 3.48572 6.21155 3.48572L15.1716 3.48572C15.5503 3.48572 15.8573 3.8311 15.8573 4.25715C15.8573 4.6832 15.5503 5.02857 15.1716 5.02857L6.21155 5.02857C5.46557 5.02857 4.88584 5.62148 4.88584 6.31429L4.88584 18.6571C4.88584 19.35 5.46557 19.9429 6.21155 19.9429Z" fill="#131313"/>
</svg>
