<svg width="24" height="24" viewBox="0 0 24 24" fill="none" xmlns="http://www.w3.org/2000/svg">
<g clip-path="url(#clip0_60_888)">
<path d="M2.92356 11.6481C3.11674 11.0885 3.27883 10.5335 3.49961 10.003C3.71806 9.48 3.99054 8.97678 4.25228 8.47181C4.30631 8.36721 4.29585 8.31724 4.21858 8.24111C3.74304 7.77188 3.27186 7.29829 2.79981 6.82557C2.54621 6.57193 2.52181 6.3116 2.72922 6.0225C3.64092 4.7492 4.75557 3.63434 6.02865 2.72248C6.31508 2.51706 6.57565 2.5374 6.82112 2.78059C7.29055 3.2504 7.76028 3.7176 8.22507 4.19119C8.31687 4.28475 8.37903 4.30567 8.50278 4.23216C9.47084 3.6605 10.5165 3.23195 11.6073 2.95986C11.623 2.95469 11.6383 2.94848 11.6532 2.94126V2.65246C11.6532 2.01326 11.6532 1.37405 11.6532 0.734853C11.6532 0.470165 11.8133 0.250512 12.073 0.201991C12.4041 0.140105 12.7385 0.0799616 13.074 0.0607856C13.7206 0.0238862 14.3699 -0.0167903 15.0159 0.00645335C15.6504 0.0294065 16.2837 0.118023 16.914 0.2017C17.1949 0.239181 17.3466 0.466388 17.3466 0.751995C17.3466 1.42994 17.3466 2.10788 17.3466 2.78582V2.90204C18.0008 3.14029 18.6401 3.35093 19.2609 3.60661C19.6917 3.78414 20.1002 4.01832 20.5118 4.23971C20.6167 4.29608 20.6722 4.29492 20.7561 4.21066C21.2209 3.73736 21.6912 3.27045 22.1604 2.80151C22.4273 2.53479 22.6798 2.51096 22.9854 2.73178C24.2527 3.64327 25.363 4.75535 26.2726 6.02425C26.4759 6.30811 26.4544 6.57105 26.209 6.81686C25.734 7.29335 25.2596 7.77014 24.7803 8.24228C24.701 8.32043 24.6908 8.37244 24.7513 8.47326C25.3347 9.46287 25.7704 10.5324 26.0445 11.6481H26.1991C26.8817 11.6481 27.5644 11.6481 28.2471 11.6481C28.5294 11.6481 28.7479 11.8047 28.7941 12.0839C28.8655 12.5165 28.9294 12.952 28.9611 13.3887C28.9991 13.8517 29.0088 14.3166 28.9902 14.7807C28.9556 15.4644 28.8867 16.1463 28.8159 16.8282C28.7801 17.1673 28.5544 17.3413 28.2099 17.3413H26.0541C25.9568 17.6656 25.8691 17.9889 25.7636 18.3062C25.5044 19.0795 25.1636 19.8229 24.7469 20.524C24.6888 20.6198 24.7033 20.6692 24.7777 20.7433C25.2532 21.2123 25.7241 21.6859 26.1968 22.158C26.4559 22.4169 26.4814 22.6772 26.2685 22.9715C25.355 24.2446 24.2395 25.3597 22.9662 26.2727C22.6859 26.4741 22.4212 26.4496 22.1743 26.203C21.7118 25.7413 21.2473 25.2816 20.791 24.8139C20.6873 24.7078 20.6167 24.6863 20.4784 24.7688C19.5021 25.3434 18.447 25.7719 17.3466 26.0408V28.2199C17.3466 28.5526 17.1534 28.7688 16.8208 28.819C15.9638 28.9486 15.1022 29.0326 14.2354 28.989C13.542 28.9544 12.85 28.8838 12.1592 28.8127C11.8318 28.779 11.6523 28.5468 11.6523 28.2159C11.6523 27.5139 11.6523 26.8119 11.6523 26.1097C11.6521 26.096 11.6509 26.0823 11.6488 26.0687C11.1358 25.8944 10.6199 25.7529 10.1307 25.5472C9.56425 25.3081 9.01841 25.0175 8.46793 24.7386C8.377 24.6927 8.32936 24.695 8.25906 24.7677C7.78643 25.2462 7.30944 25.7207 6.83361 26.1966C6.57449 26.4555 6.31972 26.4793 6.02022 26.2631C4.74845 25.3495 3.6347 24.2338 2.72312 22.9605C2.52558 22.685 2.54882 22.4189 2.78819 22.1786C3.26634 21.6986 3.74575 21.2198 4.22642 20.7422C4.28598 20.684 4.32519 20.639 4.27 20.5469C3.67797 19.5608 3.25327 18.5052 2.9683 17.3916C2.96481 17.3785 2.959 17.366 2.95087 17.3436H2.79284C2.11037 17.3436 1.42781 17.3436 0.745147 17.3436C0.473825 17.3436 0.251307 17.1833 0.208314 16.9122C0.137143 16.4749 0.0685864 16.0347 0.040699 15.5931C0.00642074 15.048 -0.0153663 14.4986 0.0116496 13.9541C0.0444754 13.3242 0.127847 12.6964 0.210057 12.0705C0.244045 11.8113 0.47673 11.6501 0.740208 11.6498C1.42287 11.6498 2.10543 11.6498 2.7879 11.6498L2.92356 11.6481ZM27.768 12.7585H27.5906C26.932 12.7585 26.2737 12.7606 25.6152 12.7565C25.3 12.7545 25.1126 12.5961 25.045 12.2896C24.8619 11.4586 24.6115 10.6495 24.229 9.88822C24.0061 9.44485 23.7517 9.01658 23.5056 8.58541C23.3566 8.32392 23.3801 8.07173 23.5893 7.85905C23.6535 7.79338 23.7186 7.7283 23.7836 7.66322L25.1121 6.33891C24.4037 5.41638 23.5778 4.59043 22.6554 3.88205L21.1448 5.39725C20.9281 5.61429 20.6634 5.6506 20.4084 5.48441C19.2897 4.75926 18.05 4.24093 16.7482 3.9541C16.3586 3.86694 16.2381 3.70365 16.2375 3.3027C16.2363 2.6635 16.2363 2.0243 16.2375 1.3851V1.22355C15.0875 1.06709 13.9216 1.06709 12.7716 1.22355C12.7693 1.27323 12.7664 1.30665 12.7664 1.33977C12.7664 2.01297 12.7681 2.68587 12.7646 3.35907C12.7629 3.69639 12.6144 3.87566 12.285 3.94771C10.9819 4.2291 9.74037 4.74391 8.62043 5.46727C8.33778 5.64973 8.08418 5.62126 7.84888 5.3865C7.41043 4.94874 6.97246 4.5104 6.53498 4.07149C6.47136 4.00786 6.41036 3.94161 6.34964 3.87769C5.41992 4.59309 4.58776 5.42706 3.87435 6.35837C3.90635 6.3708 3.93646 6.38762 3.96382 6.40835C4.44197 6.88736 4.92061 7.36667 5.39973 7.84626C5.62428 8.07144 5.65885 8.32654 5.48688 8.59442C4.76549 9.71052 4.24958 10.9467 3.96353 12.2446C3.87638 12.6359 3.71516 12.7562 3.31456 12.7574C2.67548 12.7588 2.03639 12.7574 1.39731 12.7574H1.23143C1.07297 13.9095 1.07297 15.0779 1.23143 16.23H1.41532C2.07387 16.23 2.73212 16.2279 3.39067 16.2323C3.69627 16.2346 3.88306 16.3979 3.95481 16.6914C4.03354 17.0136 4.11139 17.3367 4.20609 17.6545C4.49048 18.6081 4.91519 19.498 5.45027 20.3363C5.66669 20.675 5.64084 20.9005 5.3547 21.1873C5.15291 21.3895 4.95063 21.5912 4.74786 21.7925C4.46047 22.0776 4.17249 22.3621 3.88393 22.6461C4.59298 23.5712 5.42074 24.3989 6.34587 25.1079C6.85627 24.5954 7.35795 24.091 7.86079 23.5875C8.07227 23.376 8.3372 23.3396 8.58528 23.5003C9.71008 24.2267 10.922 24.745 12.2333 25.0225C12.5773 25.0954 12.7757 25.284 12.7667 25.7082C12.7527 26.3421 12.7629 26.9767 12.7637 27.611C12.7637 27.6621 12.7678 27.7132 12.7701 27.7606C13.9051 27.9422 15.4979 27.9001 16.2346 27.7513V27.5967C16.2346 26.9139 16.2346 26.2312 16.2407 25.5487C16.2427 25.3241 16.3859 25.1419 16.598 25.0707C16.6886 25.0417 16.7839 25.0234 16.8774 25.0019C18.1251 24.7154 19.313 24.2125 20.3872 23.516C20.6605 23.3396 20.9202 23.3693 21.1474 23.5965C21.3631 23.8117 21.5788 24.0275 21.7943 24.2438C22.0799 24.5309 22.3649 24.8191 22.6524 25.1091C23.5752 24.4008 24.4011 23.5746 25.1092 22.6516C24.6025 22.1458 24.1029 21.6463 23.6032 21.1469C23.3732 20.9165 23.3392 20.6623 23.5175 20.3868C24.2385 19.2707 24.7542 18.0346 25.0403 16.737C25.1243 16.3613 25.2872 16.2335 25.666 16.2323C26.3101 16.2297 26.9538 16.2323 27.5978 16.2323H27.7683C27.9269 15.0798 27.9268 13.911 27.768 12.7585Z" fill="currentColor"/>
<path d="M14.6505 22.9107C12.0529 22.8601 9.96835 21.9679 8.28872 20.1566C8.18356 20.0433 8.08043 19.9271 7.98486 19.8056C7.77658 19.5409 7.80592 19.1955 8.04732 19.0031C8.30731 18.7948 8.64225 18.8445 8.8668 19.1147C9.98578 20.4605 11.4041 21.3042 13.1217 21.6456C13.8761 21.7979 14.6504 21.825 15.4137 21.7258C16.856 21.5358 18.1426 20.9791 19.2406 20.0203C19.5602 19.7414 19.8489 19.4256 20.1333 19.11C20.3657 18.852 20.6957 18.796 20.956 19.0049C21.1988 19.1998 21.2247 19.5534 21.006 19.8207C20.5095 20.429 19.9294 20.9638 19.283 21.4094C18.2105 22.15 17.032 22.6259 15.739 22.8041C15.3341 22.861 14.9239 22.8848 14.6505 22.9107Z" fill="currentColor"/>
<path d="M14.4999 6.08784C16.5813 6.10847 18.4242 6.78079 20.0022 8.14287C20.3702 8.46044 20.6993 8.8274 21.0189 9.19552C21.2928 9.51105 21.1525 9.9582 20.7685 10.0878C20.5457 10.163 20.3072 10.0878 20.1468 9.8908C19.2416 8.78459 18.1096 8.0098 16.7507 7.56643C15.9928 7.31801 15.211 7.18872 14.4168 7.20935C12.2529 7.26484 10.4417 8.09696 9.00086 9.72025C8.94944 9.77835 8.89948 9.83646 8.85038 9.8969C8.64704 10.145 8.31268 10.1874 8.0614 9.99714C7.82204 9.81584 7.76278 9.46602 7.96147 9.22341C8.19258 8.93736 8.44093 8.66567 8.70514 8.40988C9.87147 7.29535 11.249 6.57073 12.8301 6.25781C13.3769 6.14972 13.9381 6.1166 14.4929 6.04919L14.4999 6.08784Z" fill="currentColor"/>
<path d="M21.7624 14.4938C21.7624 15.1615 21.7624 15.8298 21.7624 16.4986C21.7624 16.8723 21.5218 17.1114 21.1459 17.1114H18.5913C18.2282 17.1114 17.9868 16.8676 17.9868 16.5012C17.9868 15.1647 17.9868 13.8291 17.9868 12.4943C17.9868 12.1212 18.2279 11.8818 18.603 11.8818C19.4551 11.8818 20.3066 11.8818 21.1576 11.8818C21.5218 11.8818 21.7624 12.1244 21.7624 12.492C21.7624 13.1589 21.7624 13.8262 21.7624 14.4938ZM20.5902 15.9416V13.0539H19.1558V15.9416H20.5902Z" fill="currentColor"/>
<path d="M8.40316 13.0424V13.914H10.4041C10.7716 13.914 11.0141 14.1543 11.0141 14.5175C11.0141 15.1809 11.0141 15.8442 11.0141 16.5074C11.0141 16.8642 10.7704 17.1091 10.416 17.1094H7.84541C7.49275 17.1094 7.23857 16.8662 7.23828 16.5301C7.23799 16.1939 7.48985 15.949 7.84309 15.949L9.80363 15.9475C9.81662 15.946 9.82945 15.9434 9.84198 15.9397V15.0768H7.85849C7.48346 15.0768 7.23886 14.8356 7.23857 14.4649C7.23857 13.8063 7.23857 13.1477 7.23857 12.4892C7.23857 12.126 7.48462 11.8813 7.84861 11.8813C8.70537 11.8813 9.56223 11.8813 10.4192 11.8813C10.7678 11.8813 11.0159 12.1272 11.0147 12.4691C11.0147 12.8015 10.7634 13.0427 10.4177 13.0427C9.80305 13.0427 9.18827 13.0427 8.57339 13.0427L8.40316 13.0424Z" fill="currentColor"/>
<path d="M13.9254 13.0423V13.914H14.274C14.55 13.914 14.8259 13.9119 15.1016 13.914C15.25 13.9223 15.3895 13.9872 15.4915 14.0953C15.5934 14.2033 15.6501 14.3464 15.6499 14.495C15.6497 14.6436 15.5926 14.7865 15.4903 14.8943C15.3879 15.002 15.2482 15.0665 15.0999 15.0744C14.7132 15.0767 14.3266 15.0744 13.9295 15.0744V15.946H14.0872C14.6053 15.946 15.1232 15.946 15.6411 15.946C15.9897 15.946 16.2444 16.1939 16.2433 16.5312C16.2433 16.8613 15.9894 17.1071 15.6483 17.1073C14.8835 17.1073 14.1186 17.1073 13.3534 17.1073C13.0048 17.1073 12.7576 16.8624 12.7573 16.5181C12.7573 15.1673 12.7573 13.8165 12.7573 12.4659C12.7573 12.1285 13.0054 11.879 13.3406 11.8787C14.1153 11.8775 14.8899 11.8775 15.6646 11.8787C15.8135 11.8856 15.9541 11.9495 16.0572 12.0572C16.1603 12.1648 16.2181 12.308 16.2186 12.4571C16.2192 12.6062 16.1624 12.7498 16.06 12.8582C15.9576 12.9666 15.8175 13.0315 15.6687 13.0394C15.0932 13.0438 14.5174 13.0423 13.9254 13.0423Z" fill="currentColor"/>
</g>
<defs>
<clipPath id="clip0_60_888">
<rect width="24" height="24" fill="currentColor"/>
</clipPath>
</defs>
</svg>
