<svg width="46" height="46" viewBox="0 0 46 46" fill="none" xmlns="http://www.w3.org/2000/svg">
<path d="M24.7622 10.0258H37.0958C38.115 10.0258 38.6517 10.5561 38.6517 11.5651V28.7201C38.6517 29.7287 38.1141 30.2607 37.0962 30.2611C34.2567 30.2611 31.4172 30.2596 28.5777 30.2564C28.3498 30.2564 28.2872 30.2939 28.32 30.5414C28.4644 31.6347 28.5947 32.7306 28.7033 33.8287C28.731 34.1111 28.8192 34.1929 29.0939 34.172C29.4372 34.1464 29.7839 34.1622 30.1289 34.1669C30.4215 34.1711 30.6029 34.3334 30.6034 34.5787C30.6038 34.8241 30.4215 34.9927 30.1306 34.9932C26.5423 34.9949 22.9536 34.9949 19.3645 34.9932C19.0731 34.9932 18.8917 34.8228 18.8921 34.5787C18.8925 34.3347 19.0744 34.1707 19.3666 34.1673C19.761 34.1626 20.1554 34.1575 20.5494 34.1703C20.7061 34.175 20.7547 34.1158 20.7709 33.9744C20.9066 32.7903 21.0457 31.6066 21.1883 30.4234C21.2049 30.2863 21.1619 30.2467 21.0349 30.2599C20.9759 30.2631 20.9168 30.2631 20.8578 30.2599C18.0183 30.2599 15.1787 30.2599 12.3392 30.2599C11.4022 30.2599 10.8442 29.7061 10.8442 28.7785C10.8442 23.0208 10.8442 17.263 10.8442 11.5051C10.8442 10.5765 11.4022 10.0254 12.3401 10.0254L24.7622 10.0258ZM24.7465 26.1194C29.0145 26.1194 33.2829 26.121 37.5515 26.1241C37.7611 26.1241 37.8313 26.0896 37.8309 25.8571C37.823 21.0867 37.8208 16.3156 37.8245 11.5438C37.8245 11.0327 37.6452 10.8547 37.1281 10.8547H12.3737C11.843 10.8547 11.6718 11.0289 11.6718 11.5677C11.6718 16.3193 11.6698 21.0706 11.6658 25.8217C11.6658 26.0679 11.7233 26.1258 11.9691 26.1254C16.2281 26.1169 20.4872 26.1149 24.7465 26.1194ZM24.7494 26.9479H24.0969C20.054 26.9479 16.0111 26.9457 11.9683 26.9415C11.7199 26.9415 11.6543 27.0011 11.6654 27.2464C11.6867 27.7188 11.6718 28.1928 11.6718 28.6665C11.6718 29.2806 11.8239 29.4331 12.4385 29.4331H37.1409C37.6367 29.4331 37.8224 29.2496 37.8224 28.7568C37.8224 28.264 37.8071 27.7699 37.8292 27.2779C37.8411 27.0126 37.7704 26.941 37.4978 26.9419C33.2482 26.9507 28.9978 26.9527 24.7465 26.9479H24.7494ZM24.7494 34.166C25.7056 34.166 26.6618 34.1601 27.6181 34.1703C27.8348 34.1728 27.9243 34.143 27.8915 33.89C27.7424 32.7375 27.6095 31.5828 27.4813 30.4277C27.4647 30.2773 27.4038 30.2573 27.2777 30.2573C25.5922 30.2604 23.9065 30.2604 22.2207 30.2573C22.0929 30.2573 22.0346 30.2773 22.018 30.4277C21.8902 31.5828 21.7573 32.7375 21.6078 33.89C21.5746 34.1456 21.6645 34.172 21.8808 34.1699C22.8345 34.1592 23.7907 34.166 24.7465 34.166H24.7494Z" fill="#525252"/>
<path d="M16.1556 13.5198C16.2653 13.5214 16.3701 13.5654 16.4482 13.6424C16.5334 13.7229 16.6322 13.7975 16.6982 13.8933C16.9537 14.2651 17.2519 14.3503 17.6591 14.1063C17.8094 14.0164 17.9095 13.9619 17.8929 13.7655C17.8781 13.5386 17.8773 13.311 17.8904 13.084C17.9019 12.7859 18.0607 12.6296 18.3546 12.6266C18.9853 12.6212 19.6162 12.6212 20.2474 12.6266C20.5575 12.6296 20.7087 12.7889 20.7181 13.1083C20.7245 13.3349 20.7304 13.5628 20.7159 13.7898C20.7053 13.9555 20.7828 14.0096 20.9174 14.0914C21.3391 14.3469 21.6577 14.2703 21.9277 13.8724C21.9873 13.7843 22.0764 13.7148 22.1564 13.6416C22.3481 13.4661 22.5581 13.4623 22.7387 13.6369C23.2131 14.0982 23.6787 14.5667 24.1395 15.0412C24.3286 15.235 24.3159 15.4484 24.1344 15.6468C24.0492 15.7414 23.9641 15.8462 23.8614 15.9165C23.507 16.1563 23.464 16.4276 23.6685 16.8071C23.7724 16.9996 23.8508 17.0971 24.0744 17.075C24.2809 17.0599 24.4883 17.059 24.6949 17.0724C24.9965 17.0839 25.1571 17.2364 25.1596 17.5294C25.1659 18.1703 25.1659 18.8112 25.1596 19.4521C25.1567 19.7302 24.9982 19.8861 24.7158 19.9001C24.4888 19.9132 24.2613 19.9132 24.0343 19.9001C23.8516 19.8878 23.7788 19.9602 23.6842 20.1199C23.4321 20.542 23.5381 20.8414 23.91 21.1047C23.9943 21.173 24.0715 21.2498 24.1404 21.3338C24.3154 21.5233 24.3287 21.7316 24.1515 21.9148C23.6852 22.3961 23.2113 22.87 22.7297 23.3365C22.5444 23.5167 22.3362 23.4915 22.1479 23.3216C22.0674 23.2488 21.9775 23.1789 21.9196 23.0908C21.6474 22.6827 21.3199 22.6388 20.9072 22.8838C20.7832 22.9579 20.707 23.006 20.7155 23.1615C20.7279 23.3974 20.7245 23.6347 20.7155 23.871C20.7057 24.1862 20.5507 24.3396 20.2359 24.3434C19.6144 24.3485 18.9932 24.3485 18.3725 24.3434C18.0552 24.3408 17.9019 24.1879 17.8878 23.8749C17.8751 23.7474 17.8751 23.619 17.8878 23.4915C17.9487 23.1082 17.8277 22.8867 17.4257 22.7675C17.191 22.698 17.0513 22.6904 16.8954 22.8791C16.7587 23.0347 16.6128 23.1819 16.4584 23.3199C16.2727 23.4962 16.0623 23.5175 15.8779 23.3391C15.3951 22.8734 14.9209 22.3998 14.4553 21.9182C14.2666 21.7235 14.2896 21.5089 14.4804 21.3159C14.6474 21.1481 14.8084 20.9752 14.9838 20.8155C15.1069 20.7047 15.0907 20.6097 15.0537 20.456C14.9378 19.9772 14.6614 19.806 14.1891 19.9023C14.0815 19.9187 13.9721 19.9187 13.8645 19.9023C13.6038 19.8737 13.4454 19.7319 13.4441 19.461C13.4399 18.8102 13.4399 18.1595 13.4441 17.509C13.4462 17.2505 13.5991 17.112 13.8449 17.0792C13.9621 17.0608 14.0814 17.0598 14.1989 17.0763C14.6469 17.1508 14.9408 17.0243 15.0469 16.5383C15.0818 16.3773 15.1137 16.273 14.9753 16.1528C14.8049 16.005 14.6495 15.8377 14.4936 15.6733C14.2755 15.4437 14.2632 15.2473 14.4778 15.0267C14.9246 14.5671 15.3821 14.1182 15.8374 13.6671C15.9268 13.5807 16.0269 13.5164 16.1556 13.5198ZM18.7179 22.9881C18.7235 23.0569 18.7235 23.1259 18.7179 23.1947C18.6753 23.4502 18.7665 23.5546 19.0357 23.5201C19.2221 23.5001 19.4102 23.5001 19.5966 23.5201C19.8177 23.5393 19.9259 23.4818 19.8948 23.2343C19.8739 23.0597 19.8969 22.8799 19.8896 22.7027C19.8786 22.4438 20.0093 22.29 20.2457 22.2295C20.6084 22.1362 20.9563 21.9928 21.2794 21.8036C21.4924 21.6792 21.6934 21.6993 21.8723 21.8739C22.0206 22.0183 22.1637 22.1678 22.3132 22.3113C22.3651 22.3611 22.4235 22.4621 22.5061 22.385C22.7578 22.1507 23.0794 21.9463 23.2012 21.6375C23.2617 21.4842 22.9252 21.3185 22.7817 21.1464C22.7566 21.1162 22.7267 21.0902 22.6965 21.0612C22.5197 20.8849 22.4912 20.686 22.6147 20.4705C22.8063 20.1375 22.9528 19.7806 23.0504 19.409C23.1101 19.1842 23.2634 19.0615 23.5066 19.0704C23.6148 19.0747 23.7234 19.0704 23.832 19.0704C24.3312 19.0704 24.3312 19.0704 24.3312 18.5785C24.3312 17.897 24.3312 17.897 23.6663 17.897C23.6174 17.897 23.5679 17.894 23.5185 17.897C23.2596 17.9136 23.1058 17.779 23.0445 17.5431C22.9503 17.1805 22.807 16.8326 22.6186 16.5089C22.4874 16.2819 22.521 16.0775 22.7084 15.8947C22.8567 15.7503 23.0015 15.6025 23.1471 15.4556C23.2042 15.3981 23.2664 15.3372 23.1842 15.2571C22.9452 15.0233 22.737 14.7158 22.4499 14.5914C22.2978 14.5258 22.1062 14.8917 21.9196 15.0488C21.8898 15.0744 21.8634 15.1042 21.8344 15.1298C21.6845 15.2601 21.5069 15.2912 21.3399 15.1975C20.9801 14.9938 20.5966 14.8351 20.198 14.7251C19.9991 14.6706 19.8858 14.5279 19.8888 14.3094C19.8888 14.1915 19.8888 14.073 19.8888 13.9546C19.8909 13.4593 19.8909 13.4593 19.399 13.4593C18.7175 13.4593 18.7175 13.4593 18.7175 14.1242C18.7175 14.1736 18.7149 14.223 18.7175 14.272C18.7324 14.5305 18.5987 14.6855 18.3623 14.746C18 14.8406 17.6523 14.9839 17.3286 15.1719C17.1007 15.3031 16.8967 15.2686 16.7139 15.0816C16.5691 14.9338 16.4213 14.789 16.2744 14.6434C16.2169 14.5863 16.156 14.525 16.0759 14.6067C15.8429 14.8457 15.535 15.0544 15.411 15.3415C15.3454 15.4931 15.7117 15.6848 15.8689 15.8713C15.8817 15.8862 15.8966 15.8994 15.9115 15.9139C16.0861 16.0911 16.1155 16.29 15.992 16.5055C15.8031 16.8288 15.6598 17.1767 15.5661 17.5392C15.5026 17.791 15.3391 17.9179 15.0699 17.906C14.8731 17.8974 14.6755 17.9123 14.4787 17.9021C14.3271 17.8945 14.2657 17.9447 14.2734 18.1019C14.2873 18.3288 14.2873 18.5564 14.2734 18.7834C14.2568 19.0048 14.3121 19.1126 14.5592 19.0815C14.7338 19.0606 14.9136 19.0841 15.0907 19.0764C15.3501 19.0645 15.5035 19.1965 15.5639 19.432C15.6578 19.7947 15.8011 20.1426 15.9899 20.4662C16.1215 20.6941 16.0849 20.8985 15.8996 21.0812C15.7594 21.2197 15.6185 21.3577 15.4822 21.4999C15.4323 21.5519 15.331 21.6107 15.4089 21.6929C15.6393 21.9352 15.8472 22.2398 16.133 22.3743C16.3157 22.4595 16.4665 22.1047 16.6479 21.9667C16.6706 21.9478 16.6917 21.927 16.711 21.9046C16.9005 21.7035 17.1135 21.6758 17.3499 21.816C17.5964 21.9602 17.8581 22.0768 18.1301 22.1639C18.7188 22.3535 18.7188 22.3535 18.7179 22.9881Z" fill="#525252"/>
<path d="M29.2183 18.9008C28.6369 18.9008 28.0555 18.9008 27.4741 18.9008C27.1279 18.9008 26.9405 18.7556 26.9371 18.492C26.9336 18.2283 27.1236 18.0741 27.4639 18.0737C28.6365 18.0737 29.8091 18.069 30.9812 18.0775C31.161 18.0775 31.2474 18.0349 31.3245 17.8599C31.5992 17.2321 32.0997 16.8986 32.7837 16.8969C33.4678 16.8952 33.9661 17.2376 34.2425 17.8607C34.323 18.0417 34.4129 18.0843 34.5914 18.0767C34.9159 18.0635 35.2418 18.0699 35.5667 18.0741C35.8606 18.078 36.0421 18.2368 36.0451 18.4817C36.048 18.7266 35.8657 18.8957 35.5765 18.9C35.232 18.9055 34.887 18.9072 34.5424 18.9C34.398 18.8966 34.3247 18.9307 34.2604 19.0797C33.9806 19.7293 33.475 20.0887 32.7646 20.0794C32.0703 20.07 31.572 19.7169 31.3041 19.0725C31.2423 18.9243 31.1631 18.8979 31.0208 18.8996C30.4211 18.9051 29.8201 18.9008 29.2183 18.9008ZM33.5483 18.5C33.5508 18.2958 33.4723 18.0989 33.33 17.9524C33.1876 17.806 32.9931 17.7218 32.7889 17.7185C32.688 17.7168 32.5878 17.735 32.494 17.772C32.4002 17.8091 32.3146 17.8642 32.2421 17.9344C32.0957 18.076 32.0115 18.27 32.0081 18.4736C32.0047 18.6773 32.0824 18.874 32.224 19.0204C32.3656 19.1668 32.5596 19.251 32.7633 19.2544C32.9675 19.2584 33.1649 19.1812 33.3122 19.0397C33.4596 18.8983 33.5448 18.7042 33.5491 18.5H33.5483Z" fill="#525252"/>
<path d="M28.5906 13.8128C28.9739 13.8128 29.3573 13.8089 29.7436 13.8149C29.8714 13.8149 29.9514 13.7974 30.0089 13.6569C30.2785 12.9993 30.7794 12.6389 31.4894 12.6372C32.1995 12.6355 32.7008 12.9941 32.973 13.6513C33.0283 13.7855 33.1007 13.8166 33.2353 13.8153C33.9939 13.8098 34.7525 13.8119 35.511 13.8132C35.8569 13.8132 36.0443 13.9601 36.046 14.2242C36.0477 14.4883 35.8577 14.6399 35.5162 14.6408C34.7674 14.6408 34.0186 14.6442 33.2698 14.6386C33.119 14.6386 33.0339 14.6608 32.964 14.8252C32.6927 15.4662 32.1918 15.8176 31.4946 15.818C30.7973 15.8185 30.2973 15.4679 30.0204 14.8303C29.9523 14.6727 29.8765 14.6361 29.7193 14.6378C28.9705 14.6455 28.2217 14.642 27.473 14.6408C27.128 14.6408 26.9401 14.493 26.938 14.2293C26.9359 13.9657 27.1254 13.8149 27.4674 13.8132C27.8418 13.8115 28.2162 13.8128 28.5906 13.8128ZM31.5018 13.4592C31.3506 13.4575 31.2023 13.5006 31.0755 13.5829C30.9487 13.6652 30.8491 13.7832 30.7892 13.922C30.7293 14.0608 30.7118 14.2143 30.7388 14.363C30.7658 14.5118 30.8363 14.6492 30.9412 14.758C31.0461 14.8669 31.1809 14.9422 31.3286 14.9747C31.4762 15.0071 31.6302 14.9952 31.7711 14.9404C31.912 14.8855 32.0335 14.7903 32.1204 14.6666C32.2073 14.5429 32.2557 14.3962 32.2595 14.2451C32.2627 14.0405 32.1848 13.8431 32.0428 13.6958C31.9008 13.5486 31.7063 13.4635 31.5018 13.4592Z" fill="#525252"/>
<path d="M28.5936 22.3325C28.9769 22.3325 29.3602 22.3283 29.7465 22.3351C29.8769 22.3372 29.9527 22.3112 30.0098 22.1737C30.2811 21.5169 30.7824 21.1578 31.4928 21.157C32.2033 21.1561 32.7037 21.516 32.9734 22.1745C33.0296 22.3112 33.108 22.3359 33.2383 22.3351C33.9969 22.33 34.7554 22.3317 35.5144 22.3351C35.8577 22.3351 36.0464 22.4854 36.046 22.7495C36.0456 23.0136 35.8564 23.1618 35.5132 23.1627C34.7644 23.1627 34.0152 23.1669 33.2664 23.1601C33.1126 23.1601 33.0321 23.1895 32.9636 23.3501C32.6897 23.989 32.1888 24.3412 31.4916 24.3399C30.7943 24.3387 30.2943 23.9881 30.02 23.3492C29.9506 23.1887 29.8701 23.1588 29.7163 23.1601C28.9675 23.1669 28.2187 23.1644 27.47 23.1627C27.1267 23.1627 26.938 23.0123 26.938 22.7482C26.938 22.4842 27.1267 22.3368 27.4704 22.3351C27.8448 22.3313 28.2192 22.3325 28.5936 22.3325ZM31.5052 23.5141C31.6564 23.5111 31.8033 23.4635 31.9276 23.3773C32.0518 23.291 32.1477 23.1699 32.2033 23.0293C32.2589 22.8887 32.2716 22.7347 32.2399 22.5869C32.2082 22.439 32.1335 22.3038 32.0251 22.1983C31.9168 22.0928 31.7797 22.0217 31.631 21.9939C31.4824 21.9661 31.3288 21.983 31.1897 22.0422C31.0506 22.1015 30.9321 22.2006 30.8492 22.3271C30.7662 22.4535 30.7226 22.6017 30.7236 22.7529C30.727 22.9573 30.8111 23.152 30.9575 23.2946C31.1039 23.4372 31.3008 23.5161 31.5052 23.5141Z" fill="#525252"/>
<path d="M22.0089 18.5069C21.9599 20.0253 20.726 21.2328 19.2672 21.1902C17.7607 21.1476 16.5413 19.886 16.5997 18.4341C16.661 16.9199 17.9068 15.726 19.3682 15.7797C20.8466 15.8359 22.0545 17.0835 22.0089 18.5069ZM19.3469 16.6183C18.3485 16.5715 17.4916 17.385 17.4302 18.4349C17.3719 19.4337 18.2224 20.3209 19.2732 20.3571C20.2767 20.392 21.1354 19.5636 21.1728 18.5256C21.2112 17.5175 20.3947 16.6673 19.3469 16.6183Z" fill="#525252"/>
</svg>
