<svg width="24" height="24" viewBox="0 0 24 24" fill="none" xmlns="http://www.w3.org/2000/svg">
<path fill-rule="evenodd" clip-rule="evenodd" d="M10.6405 3.84574C11.1959 2.71809 12.8041 2.71809 13.3595 3.84574L15.3254 7.83345L19.7064 8.4867C20.9417 8.67085 21.4365 10.1865 20.5476 11.0641L17.3776 14.1947L18.1149 18.5992C18.3226 19.836 17.0237 20.7749 15.915 20.1906L12 18.1309L8.08504 20.1906C6.97634 20.7749 5.67741 19.836 5.88506 18.5992L6.62243 14.1947L3.45242 11.0641C2.56349 10.1865 3.05835 8.67085 4.29362 8.4867L8.67388 7.83345L10.6405 3.84574ZM12 4.51566L9.68255 9.21497L4.51718 9.98569L8.24722 13.6695L7.3795 18.8493L12 16.4174L16.6205 18.8493L15.7528 13.6695L19.4828 9.98569L14.3174 9.21497L12 4.51566Z" fill="#131313"/>
</svg>
