<svg width="24" height="24" viewBox="0 0 24 24" fill="none" xmlns="http://www.w3.org/2000/svg">
<path fill-rule="evenodd" clip-rule="evenodd" d="M5.46991 7.21937C5.76316 6.92688 6.23715 6.92688 6.5304 7.21937L8.78038 9.46935C9.07362 9.76185 9.07362 10.2418 8.78038 10.5343C8.48713 10.8268 8.01313 10.8268 7.71989 10.5343L6.75015 9.55935V15.2518C6.75015 15.6643 6.41415 16.0018 6.00016 16.0018C5.58616 16.0018 5.25016 15.6643 5.25016 15.2518V9.55935L4.28042 10.5343C3.98718 10.8268 3.51318 10.8268 3.21994 10.5343C2.92669 10.2418 2.92669 9.76185 3.21994 9.46935L5.46991 7.21937ZM20.25 8.50186H11.2501C10.8361 8.50186 10.5001 8.16436 10.5001 7.75187C10.5001 7.33937 10.8361 7.00187 11.2501 7.00187H20.25C20.664 7.00187 21 7.33937 21 7.75187C21 8.16436 20.664 8.50186 20.25 8.50186ZM10.5001 11.5018C10.5001 11.0893 10.8361 10.7518 11.2501 10.7518H17.25C17.664 10.7518 18 11.0893 18 11.5018C18 11.9143 17.664 12.2518 17.25 12.2518H11.2501C10.8361 12.2518 10.5001 11.9143 10.5001 11.5018ZM10.5001 15.2518C10.5001 14.8393 10.8361 14.5018 11.2501 14.5018H17.25C17.664 14.5018 18 14.8393 18 15.2518C18 15.6643 17.664 16.0018 17.25 16.0018H11.2501C10.8361 16.0018 10.5001 15.6643 10.5001 15.2518Z" fill="#131313"/>
</svg>
