<svg width="24" height="24" viewBox="0 0 24 24" fill="none" xmlns="http://www.w3.org/2000/svg">
<path fill-rule="evenodd" clip-rule="evenodd" d="M15.5174 9.4312C15.8186 9.73246 16.3071 9.73246 16.6083 9.4312C16.9096 9.12994 16.9096 8.64149 16.6083 8.34023L12.4941 4.22595C12.1928 3.92468 11.7044 3.92468 11.4031 4.22595L7.2888 8.34023C6.98754 8.64149 6.98754 9.12994 7.2888 9.4312C7.59007 9.73246 8.07851 9.73246 8.37977 9.4312L11.1771 6.63382V14.3371C11.1771 14.5928 11.5225 14.8 11.9486 14.8C12.3746 14.8 12.72 14.5928 12.72 14.3371V6.63382L15.5174 9.4312ZM19.4571 18.2743V9.31429C19.4571 8.93558 19.8025 8.62857 20.2286 8.62857C20.6546 8.62857 21 8.93558 21 9.31429V18.2743C21 19.7501 19.7509 20.9714 18.1714 20.9714H5.82857C4.24912 20.9714 3 19.7501 3 18.2743V9.31429C3 8.93558 3.34538 8.62857 3.77143 8.62857C4.19748 8.62857 4.54286 8.93558 4.54286 9.31429V18.2743C4.54286 19.0203 5.13576 19.6 5.82857 19.6H18.1714C18.8642 19.6 19.4571 19.0203 19.4571 18.2743Z" fill="#131313"/>
</svg>
