<svg width="36" height="35" viewBox="0 0 36 35" fill="none" xmlns="http://www.w3.org/2000/svg">
<path d="M29.5837 32.0037C29.4517 33.9137 28.2606 34.192 26.7429 34.074C25.5874 33.985 25.5296 33.9903 24.5637 32.0225C23.2088 33.153 22.1737 32.5583 21.1452 31.4379C20.2352 30.4451 20.4124 29.5414 21.3431 28.4465C20.0619 28.3093 19.214 27.8653 19.0363 26.6289H16.4431C11.3528 26.6299 6.2615 26.6303 1.16903 26.6303C0.0187733 26.6303 -0.120375 26.4999 0.0717358 25.3785C0.37844 23.5874 0.678884 21.7915 1.09151 20.0235C1.84263 16.8062 4.63089 14.5346 7.93577 14.4898C11.8913 14.4343 15.8473 14.4351 19.8038 14.4922C22.0889 14.5273 23.9614 15.5226 25.4208 17.3079C25.6654 17.6069 26.1059 17.941 26.4468 17.9314C27.9827 17.89 29.4397 17.8592 29.6024 20.1462C31.0835 18.9223 32.1244 19.3932 33.1211 20.5261C33.7981 21.2965 34.0528 22.0264 33.4683 22.9277C33.2188 23.3129 33.1534 23.5763 33.7254 23.7549C35.0884 24.1801 35.3205 24.6105 35.256 26.3337C35.2078 27.6073 34.8766 27.9862 33.5111 28.3372C33.4514 28.3526 33.4042 28.4181 33.2256 28.5606C34.4433 30.1442 33.5785 31.2834 32.2771 32.2906C31.617 32.7962 31.1003 32.7505 29.5837 32.0037ZM19.0469 25.3506C19.1509 24.1502 20.0677 23.7362 21.3012 23.5412C20.4683 22.5055 20.2102 21.62 21.0894 20.647C22.1149 19.5112 23.1631 18.8096 24.7818 19.9686C24.8016 19.3475 24.8199 18.7947 24.5724 18.4153C23.6032 16.9299 22.2093 15.9212 20.4249 15.8842C16.0974 15.7941 11.7655 15.7739 7.43889 15.8789C5.27896 15.9313 3.55959 17.1505 2.80848 19.1342C2.06988 21.0861 1.7887 23.2109 1.28507 25.3506H19.0469ZM31.2886 31.383C32.0984 30.7831 32.8081 30.2896 32.0633 29.1389C31.6324 28.4701 32.1163 27.4387 32.9088 27.2076C33.631 26.9972 33.968 26.7772 33.9728 25.9317C33.9757 25.1007 33.5294 25.0415 32.9511 24.8474C32.1374 24.5749 31.6184 23.5195 32.0777 22.8295C32.8818 21.6215 31.9593 21.2286 31.3233 20.6422C29.7406 21.4872 28.705 21.348 28.3217 20.1405C28.0983 19.4293 27.8349 19.1674 27.0694 19.1674C26.3038 19.1674 26.2788 19.6335 26.0067 20.1231C25.7438 20.5974 25.168 21.0731 24.6523 21.1824C24.1665 21.2845 23.5806 20.9084 22.9821 20.7255C21.8838 21.5026 21.8838 21.5026 22.3046 22.792C22.5844 23.65 22.1602 24.6962 21.2906 24.8734C20.5386 25.0265 20.3623 25.3491 20.3758 26.0386C20.3903 26.6756 20.5092 26.9972 21.2487 27.1311C22.1602 27.2957 22.7481 28.4917 22.2444 29.2583C21.412 30.5265 22.4452 30.8202 23.0509 31.3922C24.7616 30.369 25.4429 30.6074 26.1854 32.3147C26.2971 32.5723 26.7954 32.7803 27.1233 32.7933C27.4512 32.8063 27.9962 32.6416 28.1123 32.397C28.9712 30.5852 29.5596 30.3628 31.2886 31.383Z" fill="#525252"/>
<path d="M13.9172 6.27064e-06C17.4027 0.00482109 20.2058 2.84075 20.1611 6.31512C20.1163 9.75482 17.316 12.5503 13.9042 12.5619C10.4607 12.5734 7.60065 9.70812 7.60499 6.25012C7.60932 2.76371 10.4048 -0.00480854 13.9172 6.27064e-06ZM18.8582 6.37289C18.8904 3.56152 16.6886 1.26919 13.9283 1.23886C11.2604 1.20997 8.9565 3.43441 8.91413 6.08015C8.86839 8.9546 10.9701 11.1713 13.7906 11.2238C16.5702 11.2753 18.8269 9.11493 18.8582 6.37289Z" fill="#525252"/>
<path d="M27.1967 29.9319C25.0261 29.9391 23.2418 28.2106 23.2047 26.0646C23.1667 23.8917 24.9785 22.0847 27.1894 22.09C29.3773 22.0953 31.1092 23.8233 31.1116 26.0063C31.1143 26.5217 31.015 27.0325 30.8194 27.5094C30.6237 27.9862 30.3356 28.4195 29.9717 28.7845C29.6077 29.1494 29.1751 29.4386 28.6989 29.6356C28.2226 29.8325 27.712 29.9332 27.1967 29.9319ZM29.8034 26.0044C29.8005 24.5547 28.6502 23.3664 27.2174 23.3322C25.7729 23.2985 24.5326 24.5393 24.536 26.0184C24.5394 27.4546 25.7089 28.6617 27.1278 28.6921C28.5833 28.7214 29.8058 27.4932 29.8034 26.0044Z" fill="#525252"/>
</svg>
