<svg width="46" height="46" viewBox="0 0 46 46" fill="none" xmlns="http://www.w3.org/2000/svg">
<path d="M7.89941 24.4614C8.0864 24.0355 8.41862 23.8698 8.87521 23.8894C9.27004 23.906 9.66615 23.8843 10.0614 23.8958C10.6032 23.9119 10.9495 24.2331 10.9286 24.6816C10.9077 25.1301 10.567 25.4091 10.0418 25.412C9.65849 25.412 9.27217 25.3925 8.88927 25.4176C8.43012 25.4482 8.10343 25.28 7.89941 24.8694V24.4614Z" fill="black"/>
<path d="M25.2848 13.3136C31.5378 13.3013 36.6412 18.3966 36.6446 24.6535C36.6476 30.8988 31.5335 36.0155 25.2916 36.0099C19.0582 36.0044 13.962 30.9112 13.9487 24.6769C13.9372 18.4196 19.019 13.3255 25.2848 13.3136ZM23.0108 15.154C19.1348 15.9458 15.0004 19.9027 15.526 25.5973C16.0051 30.7936 20.534 34.891 26.1405 34.4366C31.2307 34.0238 35.53 29.5929 35.0768 23.8093C34.696 18.9418 30.775 15.7167 27.5826 15.1792C27.5826 15.3176 27.5826 15.4518 27.5826 15.5859C27.569 16.6831 27.589 17.7824 27.5315 18.8775C27.4723 19.9926 26.4539 20.8674 25.3001 20.8704C24.1463 20.8734 23.1185 19.9943 23.0619 18.886C23.0052 17.7778 23.024 16.6712 23.0103 15.5604C23.0095 15.4275 23.0108 15.295 23.0108 15.154ZM24.5488 14.8597C24.5488 16.1409 24.5411 17.3616 24.5539 18.5819C24.5573 18.9226 24.7196 19.191 25.068 19.3C25.6029 19.4683 26.0412 19.1028 26.0442 18.475C26.0502 17.3437 26.0442 16.2125 26.0442 15.0808C26.0386 15.0066 26.0285 14.9327 26.014 14.8597H24.5488Z" fill="black"/>
<path d="M9.17142 31.0367C9.16844 30.6922 9.34179 30.4519 9.63994 30.3186C10.1029 30.1142 10.5706 29.917 11.0455 29.7445C11.4523 29.5967 11.8505 29.7769 12.0089 30.141C12.1674 30.5052 12.0388 30.9294 11.6482 31.1147C11.1412 31.3573 10.6194 31.5676 10.0859 31.7442C9.62163 31.8975 9.17867 31.5295 9.17142 31.0367Z" fill="black"/>
<path d="M39.3255 29.6947C39.4078 29.7055 39.4888 29.7241 39.5674 29.7505C40.0274 29.9332 40.4913 30.1083 40.941 30.3149C41.367 30.5104 41.5288 30.9299 41.367 31.3234C41.2149 31.6936 40.806 31.8806 40.3797 31.7208C39.8631 31.5296 39.3576 31.3097 38.8655 31.0623C38.5537 30.9043 38.4558 30.5478 38.5533 30.2143C38.6415 29.9149 38.9443 29.6951 39.3255 29.6947Z" fill="black"/>
<path d="M9.17236 18.2833C9.17492 17.8007 9.63194 17.411 10.0919 17.563C10.6459 17.7505 11.1866 17.9748 11.7105 18.2347C12.055 18.4025 12.1607 18.8229 12.0167 19.1718C11.8766 19.5125 11.4907 19.7123 11.1223 19.5832C10.6035 19.4001 10.0949 19.1862 9.5919 18.9626C9.31505 18.8383 9.17449 18.5955 9.17236 18.2833Z" fill="black"/>
<path d="M13.6158 37.1681C13.2371 37.1821 13.0139 37.0403 12.8738 36.7847C12.7337 36.5292 12.7103 36.2378 12.9079 36.021C13.3143 35.5674 13.7461 35.1371 14.201 34.7322C14.4753 34.492 14.8714 34.5618 15.1287 34.8123C15.3668 35.0435 15.4656 35.455 15.2458 35.7067C14.8165 36.1965 14.3339 36.6403 13.8611 37.0905C13.7896 37.1587 13.652 37.1578 13.6158 37.1681Z" fill="black"/>
<path d="M37.8102 36.334C37.82 36.7173 37.6914 36.981 37.4197 37.067C37.1956 37.1382 36.8485 37.1735 36.6956 37.0504C36.2151 36.6632 35.779 36.213 35.3684 35.7492C35.135 35.4856 35.2112 35.0707 35.4536 34.8232C35.6959 34.5758 36.107 34.4889 36.3791 34.7257C36.8476 35.1325 37.2736 35.5865 37.6995 36.0363C37.7847 36.124 37.7928 36.2829 37.8102 36.334Z" fill="black"/>
<path d="M19.5049 11.4289C19.1761 11.4289 18.9405 11.2705 18.8106 10.9783C18.6096 10.5264 18.4132 10.0711 18.2412 9.60765C18.0763 9.16426 18.2518 8.7426 18.6322 8.58543C19.0325 8.41889 19.4504 8.59565 19.651 9.04586C19.8563 9.50799 20.0569 9.97438 20.217 10.4514C20.3853 10.9549 20.0228 11.4255 19.5049 11.4289Z" fill="black"/>
<path d="M12.7833 12.9759C12.7782 12.5968 12.9111 12.3728 13.1709 12.2326C13.4308 12.0925 13.7191 12.0733 13.9342 12.2684C14.3881 12.6749 14.8186 13.107 15.2235 13.5624C15.4573 13.829 15.3823 14.2358 15.1357 14.4883C14.8951 14.7345 14.4717 14.8189 14.2128 14.5901C13.7481 14.1804 13.3213 13.7264 12.8949 13.2753C12.8115 13.1876 12.8021 13.0296 12.7833 12.9759Z" fill="black"/>
<path d="M37.8649 12.9298C37.7635 13.1108 37.6894 13.3169 37.5544 13.4682C37.2528 13.8046 36.9257 14.119 36.599 14.432C36.228 14.7868 35.7642 14.8022 35.4554 14.484C35.1466 14.1658 35.1573 13.7331 35.5133 13.3655C35.8694 12.9979 36.2485 12.6299 36.6361 12.2841C36.8584 12.0856 37.137 12.0954 37.3993 12.2176C37.6685 12.3446 37.8155 12.6018 37.8649 12.9298Z" fill="black"/>
<path d="M31.0276 11.4314C30.5876 11.4374 30.2035 10.9667 30.3713 10.4705C30.55 9.94943 30.7605 9.43978 31.0016 8.94444C31.1899 8.55344 31.6056 8.42737 31.9736 8.59135C32.1477 8.66463 32.2864 8.80279 32.3604 8.97657C32.4345 9.15035 32.4379 9.34612 32.3701 9.52242C32.1883 10.0297 31.974 10.5259 31.7572 11.0196C31.6367 11.2909 31.4029 11.4191 31.0276 11.4314Z" fill="black"/>
<path d="M41.421 18.2765C41.421 18.5866 41.2881 18.8332 41.0078 18.958C40.5052 19.1821 39.9967 19.3967 39.4783 19.5803C39.3063 19.6407 39.1176 19.6328 38.9512 19.5583C38.7848 19.4837 38.6533 19.3481 38.5839 19.1795C38.4348 18.8332 38.5357 18.4103 38.882 18.2425C39.415 17.9767 39.9661 17.749 40.5312 17.561C40.9708 17.4145 41.412 17.8038 41.421 18.2765Z" fill="black"/>
<path d="M26.0447 8.76641C26.0447 9.03773 26.0588 9.30947 26.0417 9.5795C26.0342 9.7679 25.9539 9.94602 25.8176 10.0763C25.6813 10.2066 25.4998 10.2789 25.3113 10.278C24.9015 10.2857 24.568 9.99691 24.5531 9.57524C24.5339 9.03347 24.5335 8.49041 24.5531 7.94906C24.5693 7.54613 24.8994 7.26758 25.2968 7.26758C25.6942 7.26758 26 7.54997 26.0417 7.95332C26.0456 7.98698 26.0477 8.02081 26.0481 8.05469C26.0481 8.29193 26.0481 8.52917 26.0481 8.76641H26.0447Z" fill="black"/>
<path d="M41.1739 25.4107C40.9137 25.4107 40.653 25.4222 40.3936 25.4077C40.1995 25.3986 40.0162 25.3161 39.8806 25.1769C39.745 25.0378 39.6673 24.8523 39.6632 24.6581C39.6604 24.4693 39.7308 24.2867 39.8597 24.1487C39.9886 24.0107 40.1659 23.9279 40.3544 23.9178C40.9081 23.8918 41.4619 23.8914 42.0156 23.92C42.4253 23.9408 42.6992 24.2773 42.6924 24.6696C42.6855 25.0708 42.3776 25.3877 41.9555 25.4086C41.6948 25.4213 41.4342 25.4107 41.1739 25.4107Z" fill="black"/>
</svg>
